<?xml version="1.0" encoding="UTF-8"?>
<svg id="Layer_2" xmlns="http://www.w3.org/2000/svg" xmlns:xlink="http://www.w3.org/1999/xlink" version="1.1" viewBox="0 0 270 272.7">
  <!-- Generator: Adobe Illustrator 30.2.1, SVG Export Plug-In . SVG Version: 2.1.1 Build 1)  -->
  <defs>
    <style>
      .st0 {
        fill: none;
      }

      .st1, .st2 {
        fill: #fff;
      }

      .st1, .st3 {
        display: none;
      }

      .st4 {
        clip-path: url(#clippath);
      }

      .st5 {
        font-family: ITCAvantGardePro-Md, 'ITC Avant Garde Gothic Pro';
        font-size: 42px;
        font-weight: 500;
      }
    </style>
    <clipPath id="clippath">
      <rect class="st0" x="639.38" y="-867.4" width="301.98" height="301.99"/>
    </clipPath>
    <path id="path" d="M111.42,35.27c52.24-13.02,105.14,18.76,118.16,71,13.02,52.24-18.76,105.14-71,118.16-52.24,13.02-105.14-18.76-118.16-71-13.02-52.24,18.76-105.14,71-118.16Z"/>
    <path id="path1" d="M56.77,29.03C114.1-14.17,195.61-2.72,238.82,54.62c43.21,57.34,31.75,138.84-25.58,182.05-57.34,43.21-138.84,31.75-182.05-25.58C-12.02,153.75-.57,72.24,56.77,29.03Z"/>
  </defs>
  <g class="st3">
    <g class="st4">
      <polygon class="st2" points="941.37 -565.4 639.37 -565.4 639.37 -867.4 941.37 -867.4 941.37 -565.4 941.37 -565.4"/>
    </g>
    <path d="M892.21-673.04c-.49,1.16-1,2.3-1.53,3.44-5.95,8.54-17.97,16.42-34.03,22.36,4.33-7.26,7.95-15.19,10.8-23.69,2.3-2.09,4.35-4.69,4.77-7.77.31-2.29-.31-4.56-.75-6.85.72-3.32,1.32-6.69,1.8-10.09,5.97-2.2,11.16-4.64,15.51-7.27,5.71-3.46,9.81-7.17,12.22-11.06-.3,14.19-3.26,27.94-8.79,40.92h0ZM868.47-638.01c-10.16,10.12-21.97,18.06-35.12,23.61-8.04,3.39-16.38,5.8-24.93,7.2,5.04-1.46,9.97-3.53,14.77-6.21,10.02-5.61,19.03-13.64,26.77-23.87,2.04-2.7,3.97-5.52,5.78-8.45,14.47-5.19,25.84-11.95,32.74-19.4-5.22,9.99-11.92,19.09-19.99,27.13h0ZM747.3-614.44c-13.18-5.57-25.01-13.55-35.17-23.72-8.01-8.01-14.66-17.06-19.85-26.99,6.89,7.45,18.27,14.21,32.74,19.4,1.78,2.88,3.67,5.65,5.67,8.3,7.74,10.27,16.76,18.34,26.81,23.98,4.82,2.7,9.77,4.79,14.84,6.25-8.58-1.41-16.95-3.82-25.03-7.24h0ZM679.74-713.97c2.41,3.89,6.51,7.61,12.22,11.07,4.35,2.63,9.54,5.07,15.51,7.27,1.1,7.77,2.82,15.35,5.16,22.69,2.95,9.26,6.79,17.87,11.47,25.71-16.06-5.94-28.08-13.83-34.04-22.37-.57-1.23-1.12-2.47-1.65-3.72-5.46-12.9-8.37-26.56-8.67-40.64h0ZM690.59-764.31c.99,1.65,2.24,3.27,3.76,4.85-1.05,2.64-2.34,5.21-3.38,7.86-1.61,4.13-2.57,8.83-.91,12.94,1.15,2.86,3.45,5.1,4.9,7.82,2.3,4.33,2.28,9.47,3.42,14.24.18.75.4,1.52.9,2.11.68.8,1.75,1.15,2.74,1.5,1.5.52,2.86,1.11,4.09,1.75.16,4.85.56,9.65,1.19,14.38-14.51-5.44-24.16-12.2-27.59-19.44,0-.03,0-.06,0-.1,0-16.73,3.73-33.05,10.88-47.91h0ZM697.16-776.07c-.16,1.06-.3,2.14-.4,3.21-.28,2.97-.32,5.97-.97,8.87-.26,1.15-.6,2.27-1,3.37-1.48-1.59-2.69-3.23-3.61-4.89,1.79-3.62,3.79-7.14,5.99-10.57h0ZM752.44-820.39c6.47-2.36,13.12-4.1,19.89-5.21-3.7,1.07-7.35,2.47-10.92,4.2-8.86,4.29-17.07,10.49-24.4,18.44-3.12-1.78-5.7-3.71-7.66-5.77,7.21-4.78,14.95-8.69,23.1-11.66h0ZM848.45-810.61c-.58,1.15-.28,2.35.19,3.13.17.28.38.51.62.73-1.59,1.33-3.44,2.59-5.54,3.79-2.86-3.1-5.87-5.96-9.02-8.54-8.13-6.67-17.02-11.41-26.3-14.09,14.17,2.33,27.77,7.39,40.05,14.98h0ZM876.54-700.56c3.4-4.82,6.3-9.99,8.67-15.39.16-.35.31-.73.22-1.11-.27-1.1-1.9-.73-3.01-.49-3.26.68-6.11-2.26-7.82-5.12,0,0-.01-.02-.02-.03-.16-3.69-.45-7.36-.88-10.99,3.52,1.61,6.62,4.14,8.91,7.26.6.82,1.71,1.07,2.59.57.85-.49,1.7-.96,2.56-1.41.75-.4,1.18-1.25,1.02-2.08-.83-4.47-2.91-8.7-5.95-12.07,1.96.2,3.94.4,5.77,1.14,1.82.73,3.5,2.08,4.15,3.94.33.92.39,1.91.7,2.83.59,1.74.25,3.46,1.37,4.91,3.4,4.4-4.21,12.19,6.05,12.64-3.5,6.99-12.82,13.52-26.71,18.83.76-1.16,1.59-2.3,2.38-3.42h0ZM871.6-692.04c-.16.91-.32,1.82-.49,2.73.05-.94.22-1.85.49-2.73h0ZM853.66-646.18c-8.98,3.1-18.85,5.51-29.31,7.18-2.08.33-4.18.63-6.3.9,4.55-13.43,7.8-29.63,9.54-47.3,4.78-.57,9.44-1.25,13.95-2.04.24,2.26-.25,4.68-.96,6.88-1.11,3.44-2.73,6.82-2.76,10.43-.04,4.96,2.92,9.88,3.31,14.63.17,2.01,1.96,3.45,3.96,3.24,5.71-.59,11.2-3.78,14.21-8.69,1.03-1.68,1.79-3.53,2.98-5.11.99-1.31,2.24-2.39,3.49-3.46-2.89,8.2-6.5,15.85-10.79,22.85-.44.16-.89.31-1.33.47h0ZM817.65-636.94c2.31-.29,4.6-.61,6.87-.97,10.53-1.68,20.45-4.11,29.5-7.23.02,0,.03,0,.05-.02-1.58,2.48-3.24,4.89-4.99,7.2-7.65,10.11-16.54,18.04-26.43,23.58-8.33,4.66-17.08,7.45-26.08,8.33,7.97-3.64,15.3-14.29,21.09-30.89h0ZM726.72-645.13c7.53,2.59,15.67,4.71,24.26,6.32,2.68,4.67,6.73,8.43,10.85,11.91,1.26,1.06,2.62,2.15,4.25,2.37.66.09,1.37-.04,1.98-.32,4.79,9.75,10.28,16.16,16.11,18.82-9.03-.88-17.8-3.68-26.15-8.37-9.91-5.56-18.82-13.53-26.47-23.68-1.71-2.27-3.34-4.62-4.88-7.06.02,0,.04.01.05.02h0ZM716.76-692.57c3.28.97,6.71,1.86,10.26,2.69-.47.84-1.17,1.63-1.57,2.51-.92,1.97-.33,4.29.28,6.38.97,3.35,2.01,6.81,4.31,9.42,2.63,3.01,6.59,4.51,9.54,7.2,3.36,3.07,5.17,7.45,6.51,11.79,1.29,4.22,2.25,8.58,4.23,12.51-8.22-1.57-16.01-3.62-23.23-6.11-.45-.16-.9-.31-1.34-.47-4.95-8.07-8.99-17-12.06-26.64-2.26-7.1-3.94-14.42-5.04-21.93,2.57.92,5.28,1.8,8.12,2.64h0ZM720.59-707.56c-2.07-3.04-4.65-6.47-6.91-8.33-2.16-1.77-4.6-3.44-6.48-5.46.12-3.62.37-7.21.75-10.76,1.57-.19,3.34.32,4.63,1.29,2.21,1.67,3.46,4.27,4.92,6.63,1.42.39,2.69-1.15,2.93-2.6.25-1.46-.07-2.99.37-4.4,1.06-3.46,5.74-4.25,7.92-7.14.65-.86,1.03-1.84,1.32-2.88,6.88,1.95,14.32,3.54,22.22,4.77-.41,6.57-.62,13.28-.62,20.05,0,5.34.13,10.62.38,15.82-4.33-2.04-9-3.37-13.75-3.93-1.64-.19-3.3.08-4.79.78-2.42,1.13-5.29,2.8-6.51,4.27-.88,1.06-1.64,2.4-1.36,3.74.3,1.49,1.79,2.59,1.88,4.11.01.24,0,.48-.06.71-3.59-.83-7.05-1.73-10.36-2.71-3.03-.89-5.9-1.83-8.61-2.82-.64-4.67-1.05-9.41-1.24-14.2,3.08,1.76,5.26,3.79,6.79,5.61.63.76,1.36,1.42,2.15,1.96,2.9,1.99,6.4-1.59,4.43-4.5h0ZM737.25-801.57s-.02,0-.03,0c0,0,0,0,.01-.01,0,0,.01,0,.02,0h0ZM776.89-821.28c-.89.95-1.77,1.99-2.63,3.12-1.45.49-2.89,1.02-4.31,1.58-1.55.61-3.31,1.53-3.57,3.18-.24,1.54,1.03,2.96,2.46,3.57.05.02.11.04.16.07-1.16,2.21-2.28,4.6-3.35,7.18-1.08,2.59-2.12,5.35-3.09,8.26-.19-.04-.38-.07-.57-.11.37-1.04.73-2.09.73-3.17,0-.84-.22-1.67-.49-2.48-.68-2.02-1.67-3.9-2.8-5.71-1.11-1.77-3.15-2.77-5.23-2.53-1.69.19-3.36.58-4.96,1.15-.53.19-1.07.42-1.43.85-.58.69-.51,1.76-.07,2.55.43.79,1.16,1.38,1.86,1.94,1.48,1.19,2.96,2.37,4.44,3.55.37.29.75.61.89,1.06.11.38.03.77-.13,1.14-.8-.21-1.59-.43-2.38-.65-5.55-1.6-10.39-3.52-14.4-5.68,7.19-7.75,15.23-13.8,23.89-18,7.18-3.47,14.65-5.6,22.28-6.34-2.49,1.14-4.92,2.96-7.28,5.47h0ZM836.36-806.74c-1.77-.47-3.58-.9-5.42-.93-1.84-.03-3.73.37-5.22,1.46-.77.56-1.41,1.29-1.99,2.05-2.11,2.78-3.5,6.09-4.03,9.53-.51.1-1.02.2-1.54.3-2.18-6.49-4.63-12.22-7.29-17.01-4.37-7.87-9.24-13.08-14.34-15.41,13.28,1.3,26.12,6.81,37.46,16.1,1.89,1.55,3.74,3.21,5.53,4.95-1.01-.45-2.1-.75-3.17-1.04h0ZM846.27-798.38c-.28.24-.57.46-.89.66-.77.49-1.71.8-2.59.56-.87-.25-1.57-1.23-1.25-2.08.19-.52.68-.87.98-1.33.13-.2.22-.41.27-.63.24-.12.47-.25.7-.38.94,1.04,1.86,2.11,2.77,3.2h0ZM850.28-805.88c.57.51,1.07,1.24.93,1.99-.1.51-.47.91-.83,1.28-.88.93-1.77,1.86-2.65,2.79-.22.23-.44.46-.67.69-.85-1.02-1.71-2.02-2.59-3,2.14-1.23,4.02-2.53,5.64-3.9.06.05.11.1.17.15h0ZM869.85-735.04c.91.23,1.81.52,2.69.86.38,3.08.65,6.18.83,9.3-1.64-3.2-2.83-6.63-3.52-10.16h0ZM828.91-705.36c2.01-.19,4-.13,5.94.43.65.19,1.3.44,1.8.89,2.26,2.02.09,5.84.95,8.75.48,1.63,1.88,2.8,2.78,4.25.49.79.81,1.64,1.01,2.52-4.42.77-8.99,1.44-13.67,2,.58-6.13.99-12.43,1.2-18.85h0ZM790.92-684.33v-49.28c4.73,0,9.42-.14,14.05-.4-.22.37-.43.75-.61,1.13-1.98,4.07-1.8,8.83-1.32,13.33.58,5.5,1.99,11.65,6.75,14.47,3.66,2.16,8.27,1.68,12.44.86,1.84-.36,3.71-.77,5.57-1.01-.22,6.42-.62,12.73-1.21,18.85-11.4,1.33-23.44,2.03-35.67,2.05h0ZM790.92-636.36v-46.88c12.19-.02,24.19-.72,35.56-2.03-1.77,17.71-5.04,33.93-9.64,47.32-8.47,1.03-17.16,1.56-25.92,1.59h0ZM790.92-635.26c8.62-.02,17.17-.53,25.52-1.53-3.4,9.63-7.33,17.21-11.67,22.55-4.42,5.43-9.08,8.28-13.85,8.48v-29.5h0ZM789.82-816.72s-.06-.04-.1-.05c-1.32-.74-2.59-1.55-3.8-2.44-1.41-1.03-3.2-1.41-4.89-.98-1.64.43-3.27.9-4.88,1.41.51-.61,1.02-1.2,1.54-1.75,3.9-4.15,7.98-6.34,12.13-6.52v10.32h0ZM790.92-791.83v-10.81c1.79-2.23,4.92-3.61,5.39-6.42.3-1.79-.67-3.59-2-4.82-1-.92-2.19-1.59-3.39-2.24v-10.92c6.7.29,13.26,5.89,19.01,16.24,2.61,4.7,5.02,10.32,7.16,16.68-8.18,1.48-17.04,2.27-26.17,2.3h0ZM789.82-791.83c-2.37,0-4.73-.07-7.06-.17.06-.33.11-.66.17-1,.19-1.09.43-2.26,1.27-2.98,1.03-.87,2.62-.75,3.74-1.51,1.04-.71,1.41-1.99,1.89-3.2v8.85h0ZM764.88-639.54c.93-1.7,2.28-3.13,3.46-4.67,1.83-2.38,3.26-5.07,4.21-7.91.3-.91.59-1.88,1.28-2.54.53-.51,1.24-.77,1.88-1.12,3.32-1.81,4.77-5.78,5.45-9.5.68-3.72.9-7.65,2.84-10.89.61-1.03,1.4-1.98,1.79-3.11.4-1.13.29-2.56-.65-3.31-.33-.26-.72-.42-1.11-.57-.13-.05-.26-.1-.39-.15,2.05.04,4.11.06,6.18.07v46.88c-8.67-.02-17.26-.54-25.64-1.55.18-.57.42-1.12.7-1.63h0ZM821.85-776.84s-.02.02-.03.03c-1.65,1.29-4.16,1.25-5.54,2.82-1.3,1.48-.84,4.12.88,5.08.39.22.85.37,1.14.72.55.65.22,1.73-.47,2.23-.69.5-1.59.58-2.45.59-.86.01-1.74-.02-2.53.32-1.12.49-1.82,1.67-2.01,2.87-.52,3.21,2.35,6.32,5.57,6.78,3.22.47,6.46-1.22,8.65-3.63,0,0,.02-.02.02-.02.37,2.62.71,5.29,1.02,7.99-2.21.3-4.41.6-6.62.9-2.54.34-5.31.81-7.02,2.72-1.44,1.61-1.79,3.9-2.63,5.89-1,2.34-2.7,4.29-4.13,6.41-4.87.28-9.8.43-14.78.44v-56.02c9.25-.03,18.24-.83,26.52-2.34,1.64,4.99,3.12,10.43,4.42,16.24h0ZM819.72-791.19c.47,1.8,1.9,3.16,3.27,4.43.17.15.34.31.55.39.72.27,1.4-.42,2.13-.64.57-.17,1.18-.05,1.76.07.54.11,1.11.24,1.55.59.59.47.82,1.28.77,2.03h0c-.03.53-.46.93-.97.98-1.84.17-3.14,1.27-3.99,2.36-.77.99-1.28,2.2-2.02,3.19-1.25-5.52-2.67-10.7-4.24-15.48.35-.07.7-.14,1.05-.21-.06.77-.05,1.54.15,2.29h0ZM848.9-755.49c.65.42,1.47-.27,1.75-.99.28-.72.36-1.57.96-2.06.86-.72,2.23-.13,2.92.76.68.9.99,2.03,1.69,2.92.88,1.11,2.3,1.7,3.71,1.84,1.41.13,2.83-.14,4.21-.46.23-.05.5-.1.67.06.11.1.14.26.16.41.29,1.77.23,3.59-.14,5.34-.04.18-.09.35-.16.51-1.21.5-2.46.99-3.75,1.47-2.78-.94-4.91-2.39-7.26-3.06-.6-.17-1.22-.34-1.83-.2-.78.19-1.32.85-1.91,1.39-2.03,1.85-5.15,2.39-7.68,1.33-1.8-.76-3.24-2.32-3.95-4.14-.5-1.3-1.81-2.11-3.19-1.92-2.64.36-5.28.72-7.92,1.07-.34-3.03-.73-6.02-1.16-8.96.68-.82,1.36-1.64,2.22-2.27,1.26-.92,3.09-1.32,4.36-.41.6.43,1,1.1,1.57,1.58.57.47,1.33.73,2.06.59.72-.15,1.36-.76,1.43-1.49.04-.39-.07-.78-.06-1.17.04-1.03,1.01-1.86,2.03-2,1.02-.14,2.05.28,2.9.86,2.89,1.98,4.02,5.63,5.96,8.55.11.17.23.34.4.45h0ZM876.98-761.12c.13.69.47,1.32.76,1.97.51,1.17.83,2.52.36,3.71-.47,1.18-1.97,2.01-3.08,1.39-.52-.29-.86-.82-1.1-1.36-1.15-2.54-.7-5.8-2.58-7.86-1.34-1.48-3.56-1.93-4.87-3.44-1.24-1.42-1.37-3.7-.28-5.24,1.1-1.54,3.32-2.16,5.04-1.39.24.11.47.24.68.39,1.05.74,2.25,1.26,3.5,1.53.59.12,1.18.42,1.6,1.03.56.82.65,1.86.61,2.85-.05,1.23-.19,2.45-.41,3.65-.17.91-.4,1.84-.23,2.75h0ZM769.96-809.23c.08.08.15.16.21.26.14.26.17.56.18.85.06,1.61-.32,3.24-1.09,4.67-.68,1.26-1.7,2.56-1.4,3.96.18.84.81,1.55.94,2.4.15,1.07-.53,2.07-.76,3.13-.04.18-.06.36-.07.54-1.46-.22-2.9-.45-4.32-.71.95-2.83,1.96-5.52,3.02-8.04,1.06-2.54,2.16-4.89,3.3-7.06h0ZM756.85-766.6c.45-.21.89-.45,1.3-.75,3.2-2.29,3.35-7.38.96-10.5,1.24-5.43,2.64-10.52,4.19-15.23,1.57.29,3.16.55,4.77.78.31,1.36,1.27,2.6,2.41,3.46,1.6,1.2,3.53,1.85,5.29,2.78,1.32.7,2.81,1.59,4.21,1.07,1.5-.56,1.99-2.41,2.26-3.99.11-.65.22-1.29.33-1.94,2.39.11,4.81.17,7.25.18v56.02c-11.81-.02-23.37-.82-34.36-2.37-.68-.1-1.36-.19-2.03-.3.67-10.16,1.82-19.98,3.43-29.22h0ZM731.83-747.25c2.36-4.15,7.89-4.82,12.49-6.11,2.27-.64,4.47-1.54,6.54-2.69.69-.38,1.28-.95,1.6-1.67.68-1.49-.35-2.03-.83-2.89-.85-1.53.32-3.48,1.81-4.41.69-.43,1.45-.75,2.21-1.06-1.55,9.04-2.66,18.62-3.31,28.53-7.83-1.22-15.21-2.81-22.02-4.74.39-1.7.67-3.46,1.52-4.96h0ZM761.28-790.35c-.21-1.03.01-2.03.34-3.04.2.04.39.08.59.11-.31.96-.62,1.94-.92,2.93h0ZM746.88-795.11c-.24-.74-.82-1.32-1.54-1.62-1.25-.51-2.63-.25-3.93.01-1.1-.33-.51-1.86-.61-3.08,3.34,1.53,7.12,2.91,11.3,4.12.72.21,1.44.41,2.17.6-1.07,2.01-1.95,4.13-2.62,6.3-.09.29-.18.63-.04.9.15.31.52.44.86.53,1.4.4,2.82.73,4.24,1.01,1.01.19,2.05.35,3.04.07.13-.04.26-.08.39-.14-.68,2.44-1.32,4.96-1.92,7.56-2.66-2.51-6.7-3.32-10.36-2.75-2.09.33-4.22,1.11-5.55,2.75-1.34,1.65-1.66,3.89-2.55,5.82-.9,1.95-2.41,3.61-4.27,4.69-.35.21-.75.4-1.15.31-.28-.06-.51-.24-.73-.42-2.35-1.91-4.47-4.43-4.76-7.44-.39-4.2,2.89-7.88,6.45-10.14,3.56-2.26,7.67-3.75,10.7-6.68.63-.61,1.24-1.32.88-2.42h0ZM752.74-716.4c0-6.72.21-13.36.61-19.88.65.1,1.3.19,1.95.28,11.05,1.56,22.66,2.36,34.52,2.38v49.28c-3.09,0-6.17-.05-9.23-.14-6.05-2.33-12.1-4.66-18.14-6.99-.48-.18-.98-.38-1.32-.76-.7-.78-.5-2-.96-2.94-.31-.64-.91-1.1-1.49-1.52-1.75-1.25-3.6-2.37-5.52-3.35-.27-5.37-.41-10.84-.41-16.37h0ZM769.07-627.76c-.79-.92-1.58-1.84-2.36-2.76-.83-1.98-1.63-4.07-2.41-6.27,8.35.99,16.9,1.51,25.52,1.53v29.5c-4.79-.2-9.46-3.07-13.88-8.52-2.46-3.03-4.78-6.78-6.96-11.22.03-.03.05-.05.08-.08.57-.61.55-1.56.01-2.19h0ZM736.25-802.13c-.34.37-.67.75-1,1.13-1.38.54-2.75,1.27-4.17,1.65-3.72.99-7.41-.58-10.77-2.71,2.62-2.14,5.32-4.16,8.1-6.04,2.01,2.14,4.64,4.14,7.83,5.98h0ZM704.43-726.23c-.23-.94-.28-1.92-.03-2.85.39-1.45,1.3-2.34,2.43-2.76-.32,3.05-.55,6.12-.67,9.22-.79-1.07-1.4-2.25-1.72-3.6h0ZM902.12-716.4c0-9.85-1.28-19.63-3.81-29.06-2.46-9.14-6.08-17.96-10.78-26.21-9.26-16.25-22.57-30.04-38.5-39.87-17.59-10.87-37.87-16.61-58.65-16.61h0c-13.16,0-26.05,2.27-38.3,6.74-11.84,4.32-22.8,10.58-32.58,18.62-8.75,7.19-16.34,15.63-22.56,25.08-11.98,18.22-18.31,39.42-18.31,61.32,0,.07,0,.15,0,.22h0v.12h0c.05,14.97,3,29.49,8.78,43.16,5.63,13.31,13.69,25.26,23.95,35.52,10.26,10.26,22.21,18.32,35.52,23.95,13.78,5.83,28.41,8.78,43.5,8.78h0c15.05,0,29.65-2.94,43.4-8.74,13.28-5.6,25.22-13.62,35.47-23.84,10.25-10.22,18.32-22.12,23.97-35.38,5.85-13.72,8.85-28.3,8.9-43.34,0-.04,0-.07,0-.11h0v-.12h0c0-.08,0-.15,0-.22h0Z"/>
    <path d="M724.54-716.11c3.27,1.35,7.13.61,10.35,2.07.75.34,1.45.79,2.23,1.09.77.3,1.65.43,2.41.11.76-.32,1.32-1.21,1.06-1.99-.12-.37-.4-.67-.67-.95-2.17-2.23-6.84-4.88-9.24-6.17-.9-.48-1.85-.86-2.83-1.15-.97-.28-1.77-.48-2.51-.28-1.68.46-2.25,2.51-2.53,4.23-.08.47-.16.97-.03,1.42.22.79,1.01,1.3,1.76,1.61h0Z"/>
    <path d="M800.86-801.51c-.39.12-.72.3-1,.54-.79.68-1.6,1.5-2.64,1.54-.51.02-1.03-.16-1.52-.01-.66.19-1.05.93-1.01,1.61.04.68.42,1.3.88,1.81,1,1.1,2.42,1.81,3.9,1.93,1.49.12,3-.33,4.17-1.25.62-.49,1.79-1.55,1.32-3.77-.38-1.82-2.34-2.93-4.11-2.39h0Z"/>
  </g>
  <g>
    <path d="M222,133.85c0,48.05-38.95,87-87,87s-87-38.95-87-87,38.95-87,87-87,87,38.95,87,87ZM131.53,53.82c1.03.73,1.96,1.34,3.04,1.92v-8c-4.2.14-7.96,3.14-10.55,6.35l3.88-1.06c1.25-.34,2.57.03,3.63.79ZM135.42,66.72v8.42c6.88-.03,13.56-.57,20.37-1.79-2.32-6.84-5.4-14.04-10.05-19.58-2.6-3.03-6.1-5.87-10.32-6.04v8.47c1.68.98,3.18,1.77,3.97,3.65.9,2.15-.47,3.73-2.01,5.01-.69.58-1.32,1.15-1.97,1.86ZM111.08,64.51c.84,1.42,1.5,2.75,2.05,4.26.84,2.31-.15,3.73-.15,4.3,0,.07.23.13.3.1s.14-.14.18-.26c1.37-4.03,2.94-7.92,4.9-11.71-.71-.33-1.3-.75-1.7-1.39-.54-.84-.46-1.9.26-2.62.48-.49,1.11-.9,1.78-1.15l3.76-1.41c2.23-2.81,4.36-4.98,7.59-6.64-13.98,1.35-26.36,8.72-35.79,18.91,4.21,2.26,8.52,3.73,13.03,4.93.29-.56.14-1.13-.32-1.5l-4.29-3.45c-.51-.41-.93-1-1.08-1.6-.23-.89.21-1.64,1.02-1.95,1.33-.51,2.7-.84,4.13-1.03,1.8-.23,3.42.63,4.35,2.2ZM161.53,64.86c.89-1.04,1.96-1.6,3.24-1.9,1.1-.2,2.19-.17,3.32-.05l4.99,1.25c-8.98-8.76-20.5-14.97-33.09-16.18,5.09,2.61,8.52,7.5,11.23,12.41,2.21,4.09,3.91,8.29,5.41,12.73.41-.01.77-.08,1.2-.2.5-2.99,1.69-5.73,3.7-8.07ZM149.72,48.98s-.03-.07-.07-.07-.07.03-.07.07.03.07.07.07.07-.03.07-.07ZM106.74,55.31c4.22-2.72,8.66-4.67,13.43-6.29-11.64,1.94-22.77,6.43-32.66,12.96,1.82,1.88,3.87,3.31,5.98,4.47,4.01-4.32,8.33-8.02,13.25-11.14ZM180.82,63.53c-.93-.92-1.03-1.99-.64-3.04-9.32-5.69-19.51-9.67-30.32-11.46,5.28,1.76,10.2,4.06,14.82,7.19,4.36,2.95,8.28,6.36,11.86,10.25,1.55-.9,2.96-1.82,4.29-2.94ZM117.64,67.8c.89-1.9,1.95-2.93,1.76-5.6-.01-.18-.15-.41-.31-.55-1.97,3.77-3.52,7.62-4.88,11.7l3.3.54c.19-.68.32-1.15.52-1.68.76-2-1.28-2.52-.39-4.4ZM92.13,67.93c.26-.12.56-.62.67-.86-2.26-1.32-4.23-2.74-6.04-4.6-2.22,1.53-4.27,3.04-6.27,4.7,1.38.89,2.68,1.54,4.14,1.99,1.82.54,3.67.5,5.39-.27l2.11-.95ZM182.08,66.35c.6-.79.15-1.85-.64-2.2-1.41,1.15-2.8,2.07-4.31,2.97l2.01,2.32,2.93-3.09ZM178.51,70l-2.1-2.39c-.32-.09-.61.39-.77.62l-.77,1.1c-.27.39.03.99.3,1.26.93.95,2.51.27,3.34-.59ZM129.42,73.2l-.34,1.81,5.49.13v-6.72c-.37.79-.66,1.4-1.08,2.06-1.63,1.27-3.27.35-4.07,2.72ZM92.14,93.51c1.91-1.07,3.21-2.75,3.88-4.78.79-2.39,1.27-3.98,3.76-5.05,3.22-1.24,7.4-.92,10.18,1.51l1.47-5.76c-1.66.52-4.52-.46-6.22-.86-.28-.15-.52-.48-.42-.81.52-1.78,1.21-3.42,2.09-5.14-3.55-.96-6.94-2.09-10.39-3.64-.09.46-.36,2.47.45,2.34,1.37-.23,3.14-.55,4.03.87.42.67.33,1.45-.22,2.01-1.04,1.06-2.23,1.93-3.56,2.66l-4.38,2.41c-3.88,2.14-7.56,6.61-4.71,11.11.74,1.17,1.68,2.12,2.74,3.01.37.31.82.39,1.3.12ZM165.66,80.72c-.05-1.06-.74-1.56-1.65-1.76-.84-.18-1.58-.23-2.35.32-.21.15-.8.21-1,.04-1.77-1.53-3.17-2.96-2.95-5.44l-.77.17c1.29,3.98,2.3,7.82,3.29,11.96l1.35-2.14c.71-1.12,1.84-1.96,3.15-2.11.6-.07.96-.39.93-1.05ZM113,74.32c.03-.09,0-.26-.03-.33-.29-.76-.9,1.64-.58,2.05l.61-1.72ZM128.92,75.89c-.19,1.21-.34,2.2-.71,3.19-.49,1.31-1.82,1.9-3.1,1.29l-2.67-1.29c-2.2-1.07-4.01-1.75-4.85-4.29l-3.68-.59c-1.28,3.95-2.35,7.84-3.24,11.83,1.24,1.71,1.56,3.74,1.01,5.68-.44,1.44-1.41,2.49-2.78,3.1-1.31,7.58-2.17,15.08-2.66,22.74,9.48,1.4,18.81,2.07,28.32,2.06v-43.59s-5.65-.11-5.65-.11ZM157.33,103.44c-2.56.53-5.03-.68-6.1-3-.46-1-.47-2.12-.05-3.1,1.27-2.93,4.84-.47,5.68-2.76.59-1.61-1.64-1.09-2.17-3.1-.24-.93-.12-1.85.54-2.54.55-.56,1.3-.87,2.05-1.12.78-.26,1.49-.53,2.21-1-.94-4.27-2.06-8.41-3.43-12.66-6.86,1.25-13.72,1.78-20.65,1.84v43.59s11.47-.33,11.47-.33l2.03-2.81c.75-1.11,1.31-2.27,1.72-3.55.61-1.95,1.26-3.6,3.29-4.45.92-.39,1.89-.63,2.9-.77l6-.82-.79-6.15c-1.38,1.33-2.79,2.34-4.7,2.73ZM60.6,99.38c.85-2.17,1.13-4.15,1.27-6.27l.48-5.53c-1.73,2.66-3.19,5.29-4.57,8.07.85,1.4,1.7,2.66,2.82,3.73ZM202.19,104.56c1.8-.8,1.34-2.96.64-4.35-.43-.85-.57-1.68-.38-2.62.32-1.62,1.23-5.92-.97-6.45-1.23-.3-2.23-.77-3.29-1.44-1.36-.86-3.29-.37-4.19.95-1.14,1.68-.5,3.85,1.19,4.84l1.8,1.04c2.89,1.68,1.83,4.97,3.29,7.4.4.67,1.16.96,1.91.62ZM92.29,107.23c-1.74.87-2.97,2.28-3.49,4.15l-.53,2.34c5.67,1.59,11.32,2.79,17.12,3.67.5-7.54,1.33-14.77,2.56-22.14-.54.19-1,.39-1.49.63-.73.47-1.34,1.07-1.66,1.86-.77,1.86,1.17,2.26.84,3.55-.21.8-.74,1.34-1.44,1.73-4.71,2.65-8.26,2.38-11.9,4.21ZM189.93,111.06l2.91-1.16c.43-1.53.49-3.18.16-4.77-.06-.14-.51-.18-.66-.14-2.72.69-5.58.65-6.8-2.28-.46-1.12-1.54-2.3-2.63-1.82-.9.4-.63,1.55-1.39,2.35-.16.17-.55.31-.73.27-.16-.04-.47-.26-.56-.42l-1.91-3.41c-.94-1.68-2.79-4.23-4.96-3.93-.92.13-1.67.87-1.56,1.8.06.55.03,1.06-.35,1.43-.9.85-2.13.34-2.91-.66-1.13-1.44-2.6-1.21-4.04-.35-.63.56-1.22,1.15-1.72,1.82l.9,6.94,6.19-.83c1.11-.15,2.09.53,2.47,1.54.58,1.39,1.59,2.54,2.99,3.14,2.29.99,4.87.32,6.54-1.48.52-.56,1.23-.77,1.98-.57,2.32.62,3.85,1.76,6.1,2.52ZM61.89,125.62c-.44-1.76-1.23-3.29-2.26-4.77l-1.78-2.56c-2.52-3.62-1.68-8.49-.03-12.31l2.45-5.67c-1.16-1.18-2.02-2.35-2.94-3.72-5.63,11.7-8.48,24.45-8.45,37.38,1.01,2.02,2.36,3.66,3.96,5.19,4.82,4.48,11.37,7.58,17.5,9.88-.48-3.83-.78-7.39-.92-11.16-1.32-.7-2.68-1.2-4.07-1.7-.96-.35-1.61-1.06-1.85-2.06-.73-3.04-.85-5.5-1.6-8.49ZM200.33,148.78c7.01-2.63,17.13-7.57,20.66-14.56-.96-.09-1.8-.19-2.62-.5-2.49-.93-1.65-3.7-1.39-5.95.39-3.32-1.11-3.02-1.36-5.2-.11-.96-.34-1.86-.57-2.81s-.39-1.83-.99-2.58c-1.66-2.09-4.33-2.58-7.02-2.77,2.32,2.7,3.92,5.84,4.56,9.36.12.67-.2,1.28-.76,1.59l-1.98,1.1c-.67.4-1.54.27-2.03-.38-1.8-2.43-4.14-4.4-6.94-5.66l.67,8.51c.76,1.31,1.71,2.46,2.93,3.29,2.37,1.5,3.18.4,4.85.55.51.05.83.59.61,1.09-2.02,4.75-4.59,9.18-7.62,13.35-.37.52-.65.93-1.01,1.55ZM77.72,144.53c-.74-.45-1.35-.95-1.93-1.56-1.54-1.87-3.35-3.45-5.5-4.59.14,3.79.47,7.35.96,11.01,4.88,1.75,9.74,3.14,14.75,4.29.1-.53.03-1.07-.22-1.49l-.86-1.42c-1.07-1.78.45-3.75,1.85-4.78,1.16-.86,2.39-1.53,3.68-2.18,1.22-.6,2.47-.87,3.85-.74,3.76.41,7.32,1.44,10.85,3.05-.44-9.39-.38-18.62.18-27.89-5.94-.92-11.59-2.11-17.28-3.71-.38,1.55-1.24,2.78-2.54,3.65l-2.72,1.74c-3.76,2.63-.92,5.35-3.06,7.42-.33.32-1.06.69-1.47.39l-1.53-2.49c-1.3-2.11-3.21-3.9-5.89-3.63l-.59,8.38c2.43,2.53,4.91,3.66,7.14,6.33,1.25,1.49,2.4,3,3.44,4.64.59.93.3,2.11-.37,2.86-.67.75-1.65,1.04-2.74.7ZM113.05,153.17l14.36,5.53,7.16.11v-38.35c-9.52-.05-18.83-.67-28.38-2.08-.6,9.38-.63,18.73-.17,28.19,1.63.86,3.13,1.77,4.59,2.83.74.51,1.1,1.25,1.17,2.14.11.75.45,1.36,1.26,1.63ZM198.98,120.01c-.75-.27-1.39-.47-2.1-.64.59,2.79,1.39,5.32,2.71,7.74l-.61-7.1ZM153.8,143.81c-4.9-.48-7.15-3.9-8.27-8.28-.68-3.12-1-6.24-.88-9.43.13-2.13.63-4.11,1.68-5.94l-10.9.31v38.34c9.36,0,18.55-.52,27.77-1.58l.94-14.68-5.03.92c-1.76.3-3.46.52-5.3.34ZM69.41,128.91l.53-7.05c-1.2.44-1.92,1.6-1.97,2.88-.06,1.48.49,2.9,1.44,4.17ZM70.47,150.01c-3.59-1.32-6.97-2.81-10.28-4.61-2.41-1.35-4.62-2.78-6.73-4.54-1.77-1.47-3.23-3.1-4.57-5.02.26,12.05,3.02,23.73,8.07,34.52,1.67,2.3,3.57,4.25,5.74,6.05,6,4.94,13.29,8.53,20.68,11.24-6.89-11.73-11.01-24.39-12.91-37.64ZM197.61,166.19c-.75,1.2-1.62,2.13-2.63,3.09-2.16,6.4-4.88,12.43-8.37,18.38,4.34-1.56,8.34-3.39,12.27-5.55,3.05-1.72,5.88-3.57,8.55-5.81,2.13-1.79,4.02-3.72,5.63-6.01,5.02-10.78,7.77-22.42,8.03-34.43-1.32,1.88-2.72,3.46-4.43,4.89-2.12,1.8-4.37,3.26-6.81,4.62-3.34,1.84-6.77,3.32-10.34,4.66l-1.39,7.84.59,3.24c.2,1.79-.14,3.48-1.12,5.08ZM171.62,148.22c.11-.92.19-1.87.24-2.8-.07-1.23-.73-2.19-1.93-2.53-1.56-.52-3.21-.6-4.92-.43l-.94,14.66,10.63-1.56c-.66-3.33-3.53-3.65-3.07-7.35ZM93.62,172.93l-3.28-2.16c-1.99-1.32-3.43-3.12-4.32-5.35-.78-1.97-1.4-3.95-1.83-6.02-.23-1.12-.11-2.23.39-3.2l1.08-1.69c-4.87-1.16-9.53-2.46-14.27-4.14,1.95,13.37,6.29,26.28,13.31,37.8,6.23,2.19,12.57,3.86,19.07,5.1-.87-1.91-1.52-3.73-2.07-5.67l-1.55-5.26c-1.41-3.91-2.93-7.02-6.54-9.41ZM187.11,179.08c-2.55,2.73-5.96,4.38-9.63,4.71-1.71.15-2.9-1.2-3.02-2.79-.1-1.36-.52-2.62-.91-3.92l-1.2-3.99c-.7-2.32-.56-4.69.22-6.99l1.62-4.72c.46-1.62.81-3.24.62-4.97l-10.86,1.57c-1.28,12.56-3.42,24.77-7.41,36.8,9.95-1.28,19.39-3.35,28.75-6.65,3.39-5.61,6.18-11.46,8.33-17.65-3.82,2.65-3.78,5.64-6.53,8.58ZM155.62,194.92c1.74-5.21,3.09-10.26,4.2-15.47,1.5-7.08,2.56-14.12,3.27-21.34-9.31,1.07-18.44,1.53-27.67,1.58v36.47c6.8-.01,13.48-.41,20.2-1.24ZM121.41,183.1c-.98,3.15-2.55,5.94-4.74,8.4-.82,1.09-1.65,2.11-2.03,3.44,6.66.8,13.16,1.18,19.93,1.2v-36.48s-4.59-.04-4.59-.04c1,.4,1.68,1.01,1.64,2.13-.08,2.17-2.04,2.92-2.88,6.79-.74,3.39-.78,6.54-2.33,9.51-1.95,3.73-4.27,2.68-4.99,5.03ZM94.41,202.24c-3.95-4.12-7.31-8.58-10.28-13.38-7.09-2.58-13.86-5.72-19.94-10.18-1.77-1.3-3.67-2.98-5.09-4.42-.07-.07-.19-.1-.18-.07l.06.19c12.47,23.34,35.22,39.95,61.42,44.36-4.98-1.63-9.71-3.75-14.13-6.65-4.34-2.79-8.23-6.08-11.85-9.84ZM175.26,202.58c-3.58,3.67-7.43,6.89-11.7,9.62-4.37,2.85-9.02,4.92-13.93,6.52,26.17-4.38,49.14-21.12,61.53-44.63-2.29,2.1-4.46,4.08-7,5.74-2.7,1.86-5.46,3.39-8.39,4.86-3.23,1.57-6.46,2.92-9.89,4.15-3.05,4.92-6.53,9.51-10.62,13.73ZM117.65,205.13c-1.63.63-2.79-.06-4.02-.9-3.55-2.97-6.91-5.91-9.3-9.98-6.37-1.21-12.58-2.76-18.71-4.87-.05.04-.09.11-.05.17,6.35,9.93,14.81,18.66,25.29,24.26,5.91,3.16,12.3,5.24,19.07,5.91-1.57-.93-3.02-1.88-4.33-3.13-1.54-1.46-2.81-3.03-4.05-4.77-1.47-2.15-2.72-4.34-3.9-6.69ZM140.12,219.69c6.94-.66,13.35-2.85,19.32-6.04,10.31-5.62,18.78-14.29,25.09-24.29l-11.78,3.37c-5.46,1.3-10.91,2.27-16.52,2.97-1.46,4.17-3.12,8.13-5.22,11.96-1.53,2.73-3.17,5.25-5.27,7.54-1.62,1.85-3.49,3.24-5.63,4.49ZM128.2,217.62c1.89,1.31,3.95,2.24,6.37,2.36v-22.96c-6.75-.02-13.21-.41-19.85-1.18l1.82,4.8,1.84,2.15c.49.54.47,1.28,0,1.86,2.39,4.8,5.46,9.8,9.83,12.97ZM145.23,214.51c1.95-2.19,3.48-4.5,4.91-7.02,2.07-3.75,3.73-7.61,5.13-11.66-6.73.78-13.2,1.16-19.85,1.18v22.96c1.97-.09,3.6-.7,5.18-1.59,1.76-1.04,3.21-2.32,4.63-3.87Z"/>
    <path class="st1" d="M128.92,75.89l5.65.11v43.59c-9.51,0-18.84-.66-28.32-2.06.49-7.66,1.35-15.16,2.66-22.74,1.37-.61,2.34-1.66,2.78-3.1.55-1.94.23-3.97-1.01-5.68.89-3.99,1.96-7.88,3.24-11.83l3.68.59c.84,2.55,2.64,3.22,4.85,4.29l2.67,1.29c1.27.62,2.61.03,3.1-1.29.37-.99.51-1.98.71-3.19Z"/>
    <path class="st1" d="M113.05,153.17c-.81-.28-1.15-.88-1.26-1.63-.07-.89-.43-1.63-1.17-2.14-1.46-1.06-2.96-1.97-4.59-2.83-.46-9.46-.43-18.81.17-28.19,9.55,1.42,18.85,2.03,28.37,2.08v38.35s-7.16-.11-7.16-.11l-14.36-5.53Z"/>
    <path class="st1" d="M155.62,194.92c-6.72.82-13.39,1.23-20.2,1.24v-36.47c9.23-.05,18.36-.51,27.67-1.58-.71,7.23-1.77,14.27-3.27,21.34-1.11,5.2-2.46,10.25-4.2,15.47Z"/>
    <path class="st1" d="M157.33,103.44c1.91-.4,3.32-1.41,4.7-2.73l.79,6.15-6,.82c-1.01.14-1.98.38-2.9.77-2.03.86-2.67,2.5-3.29,4.45-.4,1.28-.97,2.44-1.72,3.55l-2.03,2.81-11.47.33v-43.59c6.93-.06,13.79-.59,20.65-1.84,1.37,4.25,2.49,8.38,3.43,12.66-.72.48-1.43.74-2.21,1-.75.25-1.5.55-2.05,1.12-.66.68-.78,1.61-.54,2.54.52,2.01,2.76,1.49,2.17,3.1-.84,2.29-4.41-.17-5.68,2.76-.43.99-.42,2.1.05,3.1,1.07,2.32,3.54,3.53,6.1,3Z"/>
    <path class="st1" d="M77.72,144.53c1.09.34,2.07.05,2.74-.7.67-.75.96-1.93.37-2.86-1.04-1.65-2.19-3.15-3.44-4.64-2.23-2.67-4.7-3.8-7.14-6.33l.59-8.38c2.68-.27,4.59,1.51,5.89,3.63l1.53,2.49c.41.3,1.14-.07,1.47-.39,2.13-2.07-.7-4.79,3.06-7.42l2.72-1.74c1.3-.87,2.16-2.1,2.54-3.65,5.7,1.6,11.34,2.79,17.28,3.71-.56,9.27-.62,18.5-.18,27.89-3.53-1.61-7.09-2.63-10.85-3.05-1.38-.13-2.63.15-3.85.74-1.29.65-2.52,1.32-3.68,2.18-1.4,1.03-2.92,3-1.85,4.78l.86,1.42c.25.42.32.96.22,1.49-5-1.14-9.87-2.53-14.75-4.29-.49-3.66-.82-7.22-.96-11.01,2.15,1.14,3.96,2.73,5.5,4.59.58.61,1.18,1.11,1.93,1.56ZM95.2,136.69c.78-.18,1.42-1.11.94-1.84-1.11-1.67-5.12-3.95-6.98-5-1.21-.68-2.44-1.2-3.81-1.47-2.31-.46-3.02,2.55-3.01,4.19.01,1.4,2.69,1.96,3.76,2.08l3.18.35c3.2.35,4.03,2.12,5.92,1.68Z"/>
    <path class="st1" d="M70.47,150.01c1.9,13.26,6.02,25.92,12.91,37.64-7.39-2.71-14.68-6.31-20.68-11.24-2.16-1.8-4.07-3.75-5.74-6.05-5.05-10.79-7.81-22.46-8.07-34.52,1.34,1.93,2.8,3.55,4.57,5.02,2.11,1.76,4.32,3.19,6.73,4.54,3.3,1.8,6.68,3.29,10.28,4.61Z"/>
    <path class="st1" d="M197.61,166.19c.97-1.59,1.32-3.28,1.12-5.08l-.59-3.24,1.39-7.84c3.56-1.34,7-2.82,10.34-4.66,2.44-1.36,4.69-2.82,6.81-4.62,1.71-1.43,3.1-3.01,4.43-4.89-.26,12.02-3.01,23.66-8.03,34.43-1.61,2.28-3.51,4.21-5.63,6.01-2.68,2.24-5.5,4.09-8.55,5.81-3.93,2.16-7.93,3.99-12.27,5.55,3.49-5.94,6.21-11.98,8.37-18.38,1.01-.96,1.88-1.89,2.63-3.09Z"/>
    <path class="st1" d="M153.8,143.81c1.84.18,3.54-.04,5.3-.34l5.03-.92-.94,14.68c-9.22,1.06-18.41,1.58-27.77,1.58v-38.34s10.9-.31,10.9-.31c-1.05,1.84-1.55,3.82-1.68,5.94-.12,3.19.2,6.31.88,9.43,1.12,4.38,3.36,7.8,8.27,8.28Z"/>
    <path class="st1" d="M93.62,172.93c3.61,2.38,5.13,5.5,6.54,9.41l1.55,5.26c.55,1.94,1.2,3.76,2.07,5.67-6.5-1.24-12.84-2.91-19.07-5.1-7.02-11.52-11.36-24.43-13.31-37.8,4.74,1.68,9.4,2.98,14.27,4.14l-1.08,1.69c-.5.97-.62,2.08-.39,3.2.43,2.08,1.05,4.06,1.83,6.02.89,2.23,2.32,4.03,4.32,5.35l3.28,2.16Z"/>
    <path class="st1" d="M187.11,179.08c2.75-2.94,2.71-5.93,6.53-8.58-2.15,6.19-4.94,12.04-8.33,17.65-9.36,3.3-18.8,5.37-28.75,6.65,3.99-12.03,6.13-24.24,7.41-36.8l10.86-1.57c.18,1.73-.16,3.35-.62,4.97l-1.62,4.72c-.79,2.3-.92,4.67-.22,6.99l1.2,3.99c.39,1.3.81,2.55.91,3.92.12,1.59,1.31,2.94,3.02,2.79,3.67-.33,7.08-1.98,9.63-4.71Z"/>
    <path class="st1" d="M61.89,125.62c.75,2.99.87,5.45,1.6,8.49.24,1,.89,1.71,1.85,2.06,1.39.5,2.75,1,4.07,1.7.13,3.77.44,7.33.92,11.16-6.13-2.3-12.68-5.4-17.5-9.88-1.6-1.53-2.95-3.16-3.96-5.19-.03-12.92,2.82-25.68,8.45-37.38.92,1.37,1.78,2.54,2.94,3.72l-2.45,5.67c-1.65,3.81-2.49,8.69.03,12.31l1.78,2.56c1.03,1.48,1.82,3.01,2.26,4.77Z"/>
    <path class="st1" d="M140.12,219.69c2.14-1.25,4.01-2.64,5.63-4.49,2.11-2.29,3.74-4.81,5.27-7.54,2.1-3.82,3.76-7.78,5.22-11.96,5.6-.7,11.05-1.67,16.52-2.97l11.78-3.37c-6.31,10-14.78,18.67-25.09,24.29-5.97,3.2-12.38,5.38-19.32,6.04Z"/>
    <path class="st1" d="M94.41,202.24c3.62,3.76,7.51,7.05,11.85,9.84,4.42,2.91,9.15,5.03,14.13,6.65-26.2-4.4-48.95-21.01-61.42-44.36l-.06-.19s.11,0,.18.07c1.43,1.45,3.32,3.12,5.09,4.42,6.07,4.46,12.84,7.61,19.94,10.18,2.97,4.8,6.34,9.25,10.28,13.38Z"/>
    <path class="st1" d="M175.26,202.58c4.09-4.22,7.57-8.81,10.62-13.73,3.43-1.23,6.66-2.58,9.89-4.15,2.94-1.47,5.7-3,8.39-4.86,2.54-1.67,4.71-3.64,7-5.74-12.39,23.51-35.36,40.25-61.53,44.63,4.9-1.6,9.56-3.68,13.93-6.52,4.28-2.73,8.12-5.94,11.7-9.62Z"/>
    <path class="st1" d="M117.65,205.13c1.18,2.35,2.42,4.54,3.9,6.69,1.23,1.74,2.51,3.31,4.05,4.77,1.31,1.25,2.76,2.19,4.33,3.13-6.78-.67-13.16-2.75-19.07-5.91-10.48-5.6-18.93-14.33-25.29-24.26-.04-.06,0-.13.05-.17,6.13,2.11,12.34,3.66,18.71,4.87,2.39,4.07,5.75,7.01,9.3,9.98,1.23.84,2.39,1.53,4.02.9Z"/>
    <path class="st1" d="M121.41,183.1c.73-2.35,3.04-1.3,4.99-5.03,1.55-2.97,1.59-6.11,2.33-9.51.84-3.87,2.81-4.62,2.88-6.79.04-1.12-.64-1.73-1.64-2.13l4.59.04v36.48c-6.78-.02-13.27-.41-19.94-1.2.38-1.33,1.21-2.36,2.03-3.44,2.19-2.46,3.77-5.26,4.74-8.4Z"/>
    <path class="st1" d="M135.42,66.72c.64-.71,1.28-1.28,1.97-1.86,1.54-1.28,2.91-2.86,2.01-5.01-.79-1.88-2.29-2.67-3.97-3.65v-8.47c4.22.17,7.72,3.01,10.32,6.04,4.65,5.55,7.73,12.74,10.05,19.58-6.81,1.23-13.5,1.76-20.36,1.79v-8.42ZM138.75,71.5c1.7,2.31,4.98,2.52,6.99.54.53-.52.72-1.23.71-1.96,0-1.15-.7-2.05-1.64-2.41-1.09-.43-2.11-.05-2.91.76-1.59,1.61-2.95-.05-3.46,1.49-.17.5-.05,1.08.31,1.58Z"/>
    <path class="st1" d="M200.33,148.78c.35-.62.63-1.04,1.01-1.55,3.03-4.18,5.6-8.6,7.62-13.35.21-.5-.11-1.05-.61-1.09-1.67-.15-2.48.95-4.85-.55-1.23-.84-2.17-1.98-2.93-3.29l-.67-8.51c2.79,1.26,5.13,3.23,6.94,5.66.49.66,1.35.78,2.03.38l1.98-1.1c.56-.31.88-.93.76-1.59-.64-3.52-2.24-6.66-4.56-9.36,2.69.19,5.36.67,7.02,2.77.6.76.77,1.66.99,2.58s.46,1.85.57,2.81c.25,2.18,1.75,1.88,1.36,5.2-.26,2.24-1.1,5.02,1.39,5.95.82.31,1.66.4,2.62.5-3.53,7-13.65,11.93-20.66,14.56Z"/>
    <path class="st1" d="M145.23,214.51c-1.42,1.55-2.87,2.84-4.63,3.87-1.58.89-3.21,1.5-5.18,1.59v-22.96c6.65-.02,13.12-.41,19.84-1.18-1.4,4.05-3.06,7.91-5.13,11.66-1.43,2.52-2.95,4.83-4.91,7.02Z"/>
    <path class="st1" d="M128.2,217.62c-4.37-3.17-7.44-8.18-9.83-12.97.48-.58.5-1.32,0-1.86l-1.84-2.15-1.82-4.8c6.65.77,13.1,1.16,19.85,1.18v22.96c-2.43-.12-4.48-1.05-6.37-2.36Z"/>
    <path class="st1" d="M111.08,64.51c-.93-1.57-2.54-2.43-4.35-2.2-1.43.18-2.8.51-4.13,1.03-.81.31-1.24,1.06-1.02,1.95.15.6.57,1.19,1.08,1.6l4.29,3.45c.46.37.61.94.32,1.5-4.51-1.21-8.82-2.67-13.03-4.93,9.43-10.18,21.81-17.56,35.79-18.91-3.23,1.66-5.36,3.83-7.59,6.64l-3.76,1.41c-.66.25-1.29.66-1.78,1.15-.72.72-.8,1.78-.26,2.62.4.63.99,1.06,1.7,1.39-1.96,3.79-3.54,7.68-4.9,11.71-.04.12-.11.24-.18.26s-.3-.03-.3-.1c0-.57,1-1.99.15-4.3-.55-1.5-1.21-2.84-2.05-4.26Z"/>
    <path class="st1" d="M189.93,111.06c-2.25-.76-3.78-1.9-6.1-2.52-.74-.2-1.46.01-1.98.57-1.67,1.81-4.25,2.47-6.54,1.48-1.4-.6-2.41-1.75-2.99-3.14-.38-1.01-1.35-1.69-2.47-1.54l-6.19.83-.9-6.94c.5-.68,1.09-1.26,1.72-1.82,1.44-.86,2.9-1.08,4.04.35.78.99,2.02,1.51,2.91.66.39-.37.42-.88.35-1.43-.11-.93.64-1.67,1.56-1.8,2.17-.31,4.02,2.25,4.96,3.93l1.91,3.41c.09.16.4.39.56.42.18.04.57-.1.73-.27.77-.8.49-1.95,1.39-2.35,1.09-.48,2.16.7,2.63,1.82,1.22,2.93,4.08,2.97,6.8,2.28.15-.04.6,0,.66.14.33,1.59.26,3.24-.16,4.77l-2.91,1.16Z"/>
    <path class="st1" d="M161.53,64.86c-2,2.34-3.19,5.08-3.7,8.07-.43.12-.8.18-1.2.2-1.5-4.44-3.2-8.64-5.41-12.73-2.71-4.91-6.14-9.8-11.23-12.41,12.59,1.21,24.11,7.43,33.09,16.18l-4.99-1.25c-1.13-.12-2.22-.15-3.32.05-1.27.29-2.35.86-3.24,1.9Z"/>
    <path class="st1" d="M92.14,93.51c-.48.27-.93.18-1.3-.12-1.07-.88-2-1.84-2.74-3.01-2.85-4.5.83-8.98,4.71-11.11l4.38-2.41c1.33-.73,2.51-1.6,3.56-2.66.56-.56.64-1.35.22-2.01-.89-1.42-2.65-1.1-4.03-.87-.81.13-.55-1.88-.45-2.34,3.45,1.55,6.84,2.68,10.39,3.64-.88,1.73-1.57,3.36-2.09,5.14-.1.33.14.66.42.81,1.71.4,4.57,1.39,6.22.86l-1.47,5.76c-2.79-2.44-6.96-2.75-10.18-1.51-2.49,1.07-2.97,2.66-3.76,5.05-.67,2.03-1.97,3.71-3.88,4.78Z"/>
    <path class="st1" d="M92.29,107.23c3.64-1.82,7.19-1.56,11.9-4.21.7-.39,1.24-.93,1.44-1.73.33-1.29-1.61-1.69-.84-3.55.33-.8.94-1.4,1.66-1.86.49-.23.95-.44,1.49-.63-1.23,7.37-2.06,14.6-2.56,22.14-5.8-.89-11.45-2.08-17.12-3.67l.53-2.34c.52-1.86,1.75-3.27,3.49-4.15Z"/>
    <path class="st1" d="M106.74,55.31c-4.92,3.11-9.25,6.81-13.25,11.14-2.12-1.16-4.16-2.59-5.98-4.47,9.9-6.53,21.02-11.02,32.66-12.96-4.77,1.63-9.21,3.57-13.43,6.29Z"/>
    <path class="st1" d="M180.82,63.53c-1.33,1.12-2.74,2.04-4.29,2.94-3.58-3.89-7.51-7.3-11.86-10.25-4.62-3.13-9.54-5.43-14.82-7.19,10.81,1.79,21,5.77,30.32,11.46-.38,1.05-.28,2.12.64,3.04Z"/>
    <path class="st1" d="M171.62,148.22c-.46,3.69,2.42,4.02,3.07,7.35l-10.63,1.56.94-14.66c1.71-.17,3.37-.09,4.92.43,1.2.34,1.87,1.3,1.93,2.53-.05.93-.12,1.87-.24,2.8Z"/>
    <path class="st1" d="M202.19,104.56c-.76.34-1.51.06-1.91-.62-1.45-2.44-.4-5.73-3.29-7.4l-1.8-1.04c-1.7-.98-2.33-3.16-1.19-4.84.9-1.32,2.83-1.81,4.19-.95,1.06.67,2.06,1.14,3.29,1.44,2.2.53,1.3,4.84.97,6.45-.19.94-.06,1.77.38,2.62.71,1.38,1.16,3.55-.64,4.35Z"/>
    <path class="st1" d="M92.13,67.93l-2.11.95c-1.72.77-3.57.81-5.39.27-1.46-.45-2.75-1.1-4.14-1.99,2-1.66,4.05-3.17,6.27-4.7,1.81,1.87,3.78,3.28,6.04,4.6-.11.23-.41.74-.67.86Z"/>
    <path class="st1" d="M131.53,53.82c-1.07-.75-2.39-1.13-3.63-.79l-3.88,1.06c2.59-3.21,6.35-6.22,10.56-6.35v8c-1.08-.58-2.02-1.19-3.05-1.92Z"/>
    <path class="st1" d="M165.66,80.72c.03.65-.33.98-.93,1.05-1.31.15-2.44.99-3.15,2.11l-1.35,2.14c-.99-4.14-2-7.98-3.29-11.96l.77-.17c-.22,2.48,1.19,3.91,2.95,5.44.2.17.8.11,1-.04.76-.55,1.51-.5,2.35-.32.9.19,1.6.7,1.65,1.76Z"/>
    <path class="st1" d="M60.6,99.38c-1.12-1.07-1.97-2.33-2.82-3.73,1.39-2.78,2.84-5.41,4.57-8.07l-.48,5.53c-.14,2.12-.42,4.1-1.27,6.27Z"/>
    <path class="st1" d="M117.64,67.8c-.88,1.89,1.15,2.41.39,4.4-.2.54-.34,1-.52,1.68l-3.3-.54c1.37-4.08,2.91-7.93,4.88-11.7.16.13.29.37.31.55.19,2.67-.87,3.7-1.76,5.6Z"/>
    <path class="st1" d="M129.42,73.2c.8-2.37,2.44-1.44,4.07-2.72.43-.66.71-1.27,1.08-2.06v6.72s-5.49-.13-5.49-.13l.34-1.81Z"/>
    <path class="st1" d="M182.08,66.35l-2.93,3.09-2.01-2.32c1.51-.9,2.9-1.82,4.31-2.97.79.36,1.24,1.42.64,2.2Z"/>
    <path class="st1" d="M198.98,120.01l.61,7.1c-1.32-2.42-2.12-4.95-2.71-7.74.71.17,1.35.37,2.1.64Z"/>
    <path class="st1" d="M69.41,128.91c-.95-1.26-1.5-2.68-1.44-4.17.05-1.28.77-2.44,1.97-2.88l-.53,7.05Z"/>
    <path class="st1" d="M178.51,70c-.83.85-2.41,1.53-3.34.59-.27-.27-.57-.87-.3-1.26l.77-1.1c.15-.22.44-.71.77-.62l2.1,2.39Z"/>
    <path class="st1" d="M113,74.32l-.61,1.72c-.32-.41.29-2.82.58-2.05.03.07.06.24.03.33Z"/>
    <circle class="st1" cx="149.65" cy="48.98" r=".07"/>
    <path d="M95.2,136.69c-1.89.45-2.72-1.32-5.92-1.68l-3.18-.35c-1.07-.12-3.75-.68-3.76-2.08-.01-1.64.7-4.65,3.01-4.19,1.36.27,2.6.78,3.81,1.47,1.86,1.05,5.87,3.33,6.98,5,.48.72-.16,1.65-.94,1.84Z"/>
    <path d="M138.75,71.5c-.36-.49-.48-1.08-.31-1.58.51-1.55,1.87.11,3.46-1.49.8-.81,1.82-1.19,2.91-.76.94.37,1.63,1.27,1.64,2.41,0,.73-.18,1.43-.71,1.96-2,1.98-5.29,1.77-6.99-.54Z"/>
  </g>
  <text>
    <textPath startOffset="100%" xlink:href="#path"><tspan class="st5"><tspan x="0" y="0">World Wide Wicket</tspan></tspan>
    </textPath></text>
  <text>
    <textPath startOffset="100%" xlink:href="#path1"><tspan class="st5"><tspan x="0" y="0">Company</tspan></tspan>
    </textPath></text>
</svg>