<?xml version="1.0" encoding="UTF-8"?><svg id="Layer_2" xmlns="http://www.w3.org/2000/svg" viewBox="0 0 270 272.7"><defs><style>.cls-1{fill:none;}.cls-2{fill:#fff;}</style></defs><path d="M222,133.85c0,48.05-38.95,87-87,87s-87-38.95-87-87,38.95-87,87-87,87,38.95,87,87ZM131.53,53.82c1.03.73,1.96,1.34,3.04,1.92v-8c-4.2.14-7.96,3.14-10.55,6.35l3.88-1.06c1.25-.34,2.57.03,3.63.79ZM135.42,66.72v8.42c6.88-.03,13.56-.57,20.37-1.79-2.32-6.84-5.4-14.04-10.05-19.58-2.6-3.03-6.1-5.87-10.32-6.04v8.47c1.68.98,3.18,1.77,3.97,3.65.9,2.15-.47,3.73-2.01,5.01-.69.58-1.32,1.15-1.97,1.86ZM111.08,64.51c.84,1.42,1.5,2.75,2.05,4.26.84,2.31-.15,3.73-.15,4.3,0,.07.23.13.3.1s.14-.14.18-.26c1.37-4.03,2.94-7.92,4.9-11.71-.71-.33-1.3-.75-1.7-1.39-.54-.84-.46-1.9.26-2.62.48-.49,1.11-.9,1.78-1.15l3.76-1.41c2.23-2.81,4.36-4.98,7.59-6.64-13.98,1.35-26.36,8.72-35.79,18.91,4.21,2.26,8.52,3.73,13.03,4.93.29-.56.14-1.13-.32-1.5l-4.29-3.45c-.51-.41-.93-1-1.08-1.6-.23-.89.21-1.64,1.02-1.95,1.33-.51,2.7-.84,4.13-1.03,1.8-.23,3.42.63,4.35,2.2ZM161.53,64.86c.89-1.04,1.96-1.6,3.24-1.9,1.1-.2,2.19-.17,3.32-.05l4.99,1.25c-8.98-8.76-20.5-14.97-33.09-16.18,5.09,2.61,8.52,7.5,11.23,12.41,2.21,4.09,3.91,8.29,5.41,12.73.41-.01.77-.08,1.2-.2.5-2.99,1.69-5.73,3.7-8.07ZM149.72,48.98s-.03-.07-.07-.07-.07.03-.07.07.03.07.07.07.07-.03.07-.07ZM106.74,55.31c4.22-2.72,8.66-4.67,13.43-6.29-11.64,1.94-22.77,6.43-32.66,12.96,1.82,1.88,3.87,3.31,5.98,4.47,4.01-4.32,8.33-8.02,13.25-11.14ZM180.82,63.53c-.93-.92-1.03-1.99-.64-3.04-9.32-5.69-19.51-9.67-30.32-11.46,5.28,1.76,10.2,4.06,14.82,7.19,4.36,2.95,8.28,6.36,11.86,10.25,1.55-.9,2.96-1.82,4.29-2.94ZM117.64,67.8c.89-1.9,1.95-2.93,1.76-5.6-.01-.18-.15-.41-.31-.55-1.97,3.77-3.52,7.62-4.88,11.7l3.3.54c.19-.68.32-1.15.52-1.68.76-2-1.28-2.52-.39-4.4ZM92.13,67.93c.26-.12.56-.62.67-.86-2.26-1.32-4.23-2.74-6.04-4.6-2.22,1.53-4.27,3.04-6.27,4.7,1.38.89,2.68,1.54,4.14,1.99,1.82.54,3.67.5,5.39-.27l2.11-.95ZM182.08,66.35c.6-.79.15-1.85-.64-2.2-1.41,1.15-2.8,2.07-4.31,2.97l2.01,2.32,2.93-3.09ZM178.51,70l-2.1-2.39c-.32-.09-.61.39-.77.62l-.77,1.1c-.27.39.03.99.3,1.26.93.95,2.51.27,3.34-.59ZM129.42,73.2l-.34,1.81,5.49.13v-6.72c-.37.79-.66,1.4-1.08,2.06-1.63,1.27-3.27.35-4.07,2.72ZM92.14,93.51c1.91-1.07,3.21-2.75,3.88-4.78.79-2.39,1.27-3.98,3.76-5.05,3.22-1.24,7.4-.92,10.18,1.51l1.47-5.76c-1.66.52-4.52-.46-6.22-.86-.28-.15-.52-.48-.42-.81.52-1.78,1.21-3.42,2.09-5.14-3.55-.96-6.94-2.09-10.39-3.64-.09.46-.36,2.47.45,2.34,1.37-.23,3.14-.55,4.03.87.42.67.33,1.45-.22,2.01-1.04,1.06-2.23,1.93-3.56,2.66l-4.38,2.41c-3.88,2.14-7.56,6.61-4.71,11.11.74,1.17,1.68,2.12,2.74,3.01.37.31.82.39,1.3.12ZM165.66,80.72c-.05-1.06-.74-1.56-1.65-1.76-.84-.18-1.58-.23-2.35.32-.21.15-.8.21-1,.04-1.77-1.53-3.17-2.96-2.95-5.44l-.77.17c1.29,3.98,2.3,7.82,3.29,11.96l1.35-2.14c.71-1.12,1.84-1.96,3.15-2.11.6-.07.96-.39.93-1.05ZM113,74.32c.03-.09,0-.26-.03-.33-.29-.76-.9,1.64-.58,2.05l.61-1.72ZM128.92,75.89c-.19,1.21-.34,2.2-.71,3.19-.49,1.31-1.82,1.9-3.1,1.29l-2.67-1.29c-2.2-1.07-4.01-1.75-4.85-4.29l-3.68-.59c-1.28,3.95-2.35,7.84-3.24,11.83,1.24,1.71,1.56,3.74,1.01,5.68-.44,1.44-1.41,2.49-2.78,3.1-1.31,7.58-2.17,15.08-2.66,22.74,9.48,1.4,18.81,2.07,28.32,2.06v-43.59s-5.65-.11-5.65-.11ZM157.33,103.44c-2.56.53-5.03-.68-6.1-3-.46-1-.47-2.12-.05-3.1,1.27-2.93,4.84-.47,5.68-2.76.59-1.61-1.64-1.09-2.17-3.1-.24-.93-.12-1.85.54-2.54.55-.56,1.3-.87,2.05-1.12.78-.26,1.49-.53,2.21-1-.94-4.27-2.06-8.41-3.43-12.66-6.86,1.25-13.72,1.78-20.65,1.84v43.59s11.47-.33,11.47-.33l2.03-2.81c.75-1.11,1.31-2.27,1.72-3.55.61-1.95,1.26-3.6,3.29-4.45.92-.39,1.89-.63,2.9-.77l6-.82-.79-6.15c-1.38,1.33-2.79,2.34-4.7,2.73ZM60.6,99.38c.85-2.17,1.13-4.15,1.27-6.27l.48-5.53c-1.73,2.66-3.19,5.29-4.57,8.07.85,1.4,1.7,2.66,2.82,3.73ZM202.19,104.56c1.8-.8,1.34-2.96.64-4.35-.43-.85-.57-1.68-.38-2.62.32-1.62,1.23-5.92-.97-6.45-1.23-.3-2.23-.77-3.29-1.44-1.36-.86-3.29-.37-4.19.95-1.14,1.68-.5,3.85,1.19,4.84l1.8,1.04c2.89,1.68,1.83,4.97,3.29,7.4.4.67,1.16.96,1.91.62ZM92.29,107.23c-1.74.87-2.97,2.28-3.49,4.15l-.53,2.34c5.67,1.59,11.32,2.79,17.12,3.67.5-7.54,1.33-14.77,2.56-22.14-.54.19-1,.39-1.49.63-.73.47-1.34,1.07-1.66,1.86-.77,1.86,1.17,2.26.84,3.55-.21.8-.74,1.34-1.44,1.73-4.71,2.65-8.26,2.38-11.9,4.21ZM189.93,111.06l2.91-1.16c.43-1.53.49-3.18.16-4.77-.06-.14-.51-.18-.66-.14-2.72.69-5.58.65-6.8-2.28-.46-1.12-1.54-2.3-2.63-1.82-.9.4-.63,1.55-1.39,2.35-.16.17-.55.31-.73.27-.16-.04-.47-.26-.56-.42l-1.91-3.41c-.94-1.68-2.79-4.23-4.96-3.93-.92.13-1.67.87-1.56,1.8.06.55.03,1.06-.35,1.43-.9.85-2.13.34-2.91-.66-1.13-1.44-2.6-1.21-4.04-.35-.63.56-1.22,1.15-1.72,1.82l.9,6.94,6.19-.83c1.11-.15,2.09.53,2.47,1.54.58,1.39,1.59,2.54,2.99,3.14,2.29.99,4.87.32,6.54-1.48.52-.56,1.23-.77,1.98-.57,2.32.62,3.85,1.76,6.1,2.52ZM61.89,125.62c-.44-1.76-1.23-3.29-2.26-4.77l-1.78-2.56c-2.52-3.62-1.68-8.49-.03-12.31l2.45-5.67c-1.16-1.18-2.02-2.35-2.94-3.72-5.63,11.7-8.48,24.45-8.45,37.38,1.01,2.02,2.36,3.66,3.96,5.19,4.82,4.48,11.37,7.58,17.5,9.88-.48-3.83-.78-7.39-.92-11.16-1.32-.7-2.68-1.2-4.07-1.7-.96-.35-1.61-1.06-1.85-2.06-.73-3.04-.85-5.5-1.6-8.49ZM200.33,148.78c7.01-2.63,17.13-7.57,20.66-14.56-.96-.09-1.8-.19-2.62-.5-2.49-.93-1.65-3.7-1.39-5.95.39-3.32-1.11-3.02-1.36-5.2-.11-.96-.34-1.86-.57-2.81s-.39-1.83-.99-2.58c-1.66-2.09-4.33-2.58-7.02-2.77,2.32,2.7,3.92,5.84,4.56,9.36.12.67-.2,1.28-.76,1.59l-1.98,1.1c-.67.4-1.54.27-2.03-.38-1.8-2.43-4.14-4.4-6.94-5.66l.67,8.51c.76,1.31,1.71,2.46,2.93,3.29,2.37,1.5,3.18.4,4.85.55.51.05.83.59.61,1.09-2.02,4.75-4.59,9.18-7.62,13.35-.37.52-.65.93-1.01,1.55ZM77.72,144.53c-.74-.45-1.35-.95-1.93-1.56-1.54-1.87-3.35-3.45-5.5-4.59.14,3.79.47,7.35.96,11.01,4.88,1.75,9.74,3.14,14.75,4.29.1-.53.03-1.07-.22-1.49l-.86-1.42c-1.07-1.78.45-3.75,1.85-4.78,1.16-.86,2.39-1.53,3.68-2.18,1.22-.6,2.47-.87,3.85-.74,3.76.41,7.32,1.44,10.85,3.05-.44-9.39-.38-18.62.18-27.89-5.94-.92-11.59-2.11-17.28-3.71-.38,1.55-1.24,2.78-2.54,3.65l-2.72,1.74c-3.76,2.63-.92,5.35-3.06,7.42-.33.32-1.06.69-1.47.39l-1.53-2.49c-1.3-2.11-3.21-3.9-5.89-3.63l-.59,8.38c2.43,2.53,4.91,3.66,7.14,6.33,1.25,1.49,2.4,3,3.44,4.64.59.93.3,2.11-.37,2.86-.67.75-1.65,1.04-2.74.7ZM113.05,153.17l14.36,5.53,7.16.11v-38.35c-9.52-.05-18.83-.67-28.38-2.08-.6,9.38-.63,18.73-.17,28.19,1.63.86,3.13,1.77,4.59,2.83.74.51,1.1,1.25,1.17,2.14.11.75.45,1.36,1.26,1.63ZM198.98,120.01c-.75-.27-1.39-.47-2.1-.64.59,2.79,1.39,5.32,2.71,7.74l-.61-7.1ZM153.8,143.81c-4.9-.48-7.15-3.9-8.27-8.28-.68-3.12-1-6.24-.88-9.43.13-2.13.63-4.11,1.68-5.94l-10.9.31v38.34c9.36,0,18.55-.52,27.77-1.58l.94-14.68-5.03.92c-1.76.3-3.46.52-5.3.34ZM69.41,128.91l.53-7.05c-1.2.44-1.92,1.6-1.97,2.88-.06,1.48.49,2.9,1.44,4.17ZM70.47,150.01c-3.59-1.32-6.97-2.81-10.28-4.61-2.41-1.35-4.62-2.78-6.73-4.54-1.77-1.47-3.23-3.1-4.57-5.02.26,12.05,3.02,23.73,8.07,34.52,1.67,2.3,3.57,4.25,5.74,6.05,6,4.94,13.29,8.53,20.68,11.24-6.89-11.73-11.01-24.39-12.91-37.64ZM197.61,166.19c-.75,1.2-1.62,2.13-2.63,3.09-2.16,6.4-4.88,12.43-8.37,18.38,4.34-1.56,8.34-3.39,12.27-5.55,3.05-1.72,5.88-3.57,8.55-5.81,2.13-1.79,4.02-3.72,5.63-6.01,5.02-10.78,7.77-22.42,8.03-34.43-1.32,1.88-2.72,3.46-4.43,4.89-2.12,1.8-4.37,3.26-6.81,4.62-3.34,1.84-6.77,3.32-10.34,4.66l-1.39,7.84.59,3.24c.2,1.79-.14,3.48-1.12,5.08ZM171.62,148.22c.11-.92.19-1.87.24-2.8-.07-1.23-.73-2.19-1.93-2.53-1.56-.52-3.21-.6-4.92-.43l-.94,14.66,10.63-1.56c-.66-3.33-3.53-3.65-3.07-7.35ZM93.62,172.93l-3.28-2.16c-1.99-1.32-3.43-3.12-4.32-5.35-.78-1.97-1.4-3.95-1.83-6.02-.23-1.12-.11-2.23.39-3.2l1.08-1.69c-4.87-1.16-9.53-2.46-14.27-4.14,1.95,13.37,6.29,26.28,13.31,37.8,6.23,2.19,12.57,3.86,19.07,5.1-.87-1.91-1.52-3.73-2.07-5.67l-1.55-5.26c-1.41-3.91-2.93-7.02-6.54-9.41ZM187.11,179.08c-2.55,2.73-5.96,4.38-9.63,4.71-1.71.15-2.9-1.2-3.02-2.79-.1-1.36-.52-2.62-.91-3.92l-1.2-3.99c-.7-2.32-.56-4.69.22-6.99l1.62-4.72c.46-1.62.81-3.24.62-4.97l-10.86,1.57c-1.28,12.56-3.42,24.77-7.41,36.8,9.95-1.28,19.39-3.35,28.75-6.65,3.39-5.61,6.18-11.46,8.33-17.65-3.82,2.65-3.78,5.64-6.53,8.58ZM155.62,194.92c1.74-5.21,3.09-10.26,4.2-15.47,1.5-7.08,2.56-14.12,3.27-21.34-9.31,1.07-18.44,1.53-27.67,1.58v36.47c6.8-.01,13.48-.41,20.2-1.24ZM121.41,183.1c-.98,3.15-2.55,5.94-4.74,8.4-.82,1.09-1.65,2.11-2.03,3.44,6.66.8,13.16,1.18,19.93,1.2v-36.48s-4.59-.04-4.59-.04c1,.4,1.68,1.01,1.64,2.13-.08,2.17-2.04,2.92-2.88,6.79-.74,3.39-.78,6.54-2.33,9.51-1.95,3.73-4.27,2.68-4.99,5.03ZM94.41,202.24c-3.95-4.12-7.31-8.58-10.28-13.38-7.09-2.58-13.86-5.72-19.94-10.18-1.77-1.3-3.67-2.98-5.09-4.42-.07-.07-.19-.1-.18-.07l.06.19c12.47,23.34,35.22,39.95,61.42,44.36-4.98-1.63-9.71-3.75-14.13-6.65-4.34-2.79-8.23-6.08-11.85-9.84ZM175.26,202.58c-3.58,3.67-7.43,6.89-11.7,9.62-4.37,2.85-9.02,4.92-13.93,6.52,26.17-4.38,49.14-21.12,61.53-44.63-2.29,2.1-4.46,4.08-7,5.74-2.7,1.86-5.46,3.39-8.39,4.86-3.23,1.57-6.46,2.92-9.89,4.15-3.05,4.92-6.53,9.51-10.62,13.73ZM117.65,205.13c-1.63.63-2.79-.06-4.02-.9-3.55-2.97-6.91-5.91-9.3-9.98-6.37-1.21-12.58-2.76-18.71-4.87-.05.04-.09.11-.05.17,6.35,9.93,14.81,18.66,25.29,24.26,5.91,3.16,12.3,5.24,19.07,5.91-1.57-.93-3.02-1.88-4.33-3.13-1.54-1.46-2.81-3.03-4.05-4.77-1.47-2.15-2.72-4.34-3.9-6.69ZM140.12,219.69c6.94-.66,13.35-2.85,19.32-6.04,10.31-5.62,18.78-14.29,25.09-24.29l-11.78,3.37c-5.46,1.3-10.91,2.27-16.52,2.97-1.46,4.17-3.12,8.13-5.22,11.96-1.53,2.73-3.17,5.25-5.27,7.54-1.62,1.85-3.49,3.24-5.63,4.49ZM128.2,217.62c1.89,1.31,3.95,2.24,6.37,2.36v-22.96c-6.75-.02-13.21-.41-19.85-1.18l1.82,4.8,1.84,2.15c.49.54.47,1.28,0,1.86,2.39,4.8,5.46,9.8,9.83,12.97ZM145.23,214.51c1.95-2.19,3.48-4.5,4.91-7.02,2.07-3.75,3.73-7.61,5.13-11.66-6.73.78-13.2,1.16-19.85,1.18v22.96c1.97-.09,3.6-.7,5.18-1.59,1.76-1.04,3.21-2.32,4.63-3.87Z"/><path class="cls-2" d="M113,74.32l-.61,1.72c-.32-.41.29-2.82.58-2.05.03.07.06.24.03.33Z"/><circle class="cls-2" cx="149.65" cy="48.98" r=".07"/><path d="M95.2,136.69c-1.89.45-2.72-1.32-5.92-1.68l-3.18-.35c-1.07-.12-3.75-.68-3.76-2.08-.01-1.64.7-4.65,3.01-4.19,1.36.27,2.6.78,3.81,1.47,1.86,1.05,5.87,3.33,6.98,5,.48.72-.16,1.65-.94,1.84Z"/><path d="M138.75,71.5c-.36-.49-.48-1.08-.31-1.58.51-1.55,1.87.11,3.46-1.49.8-.81,1.82-1.19,2.91-.76.94.37,1.63,1.27,1.64,2.41,0,.73-.18,1.43-.71,1.96-2,1.98-5.29,1.77-6.99-.54Z"/><circle class="cls-1" cx="135" cy="129.85" r="97.48"/><path d="M37.32,130.35l-21.32,7v.08s22.04,4.24,22.04,4.24l.25,3.98-30.47,10.65-.3-4.69,22.97-7.4v-.08s-23.74-4.51-23.74-4.51l-.21-3.31,22.81-7.39v-.08s-23.57-4.56-23.57-4.56l-.29-4.61,31.57,6.71.25,3.98Z"/><path d="M40.7,107.51c-1.53,6.37-8.33,10.74-14.7,9.21-6.9-1.66-10.7-8.32-9.03-15.26,1.5-6.25,7.82-10.95,14.98-9.14,6.02,1.54,10.48,7.96,8.74,15.19ZM20.8,102.59c-1.02,4.25,1.69,8.79,6.1,9.85,4.29,1.03,8.9-1.62,9.93-5.91,1.07-4.45-1.57-8.93-6.14-10.03-4.41-1.06-8.82,1.64-9.89,6.09Z"/><path d="M44.92,92.43l-21.1-9.81,1.72-3.69,1.9.88.04-.08c-.97-1.61-1.12-3.67.02-6.52l4.07,1.89c-1.48,3.48-.2,6.21,3.34,7.85l11.84,5.51-1.84,3.96Z"/><path d="M50.96,80.46l-26.42-16.36,2.3-3.71,26.42,16.36-2.3,3.71Z"/><path d="M68.07,58.62l-2.45-2.23-.06.06c.65,3.03-.37,6.2-2.66,8.72-4.55,5-11.93,5.49-17,.88-5.25-4.78-5.86-12.16-1.19-17.28,2.12-2.33,4.97-3.77,7.98-3.58l.06-.06-7.89-7.18,2.94-3.23,22.98,20.93-2.72,2.98ZM47.9,51.2c-3,3.29-2.58,8.39.8,11.47,3.23,2.94,8.46,2.88,11.4-.35,2.97-3.26,2.79-8.42-.47-11.4-3.51-3.2-8.42-3.35-11.73.28Z"/><path d="M101.85,38.07l-13.69-17.77-.08.03,3.34,22.18-3.67,1.56-20.19-25.18,4.33-1.85,14.62,19.2.08-.03-3.65-23.88,3.05-1.3,14.56,19.04.08-.03-3.55-23.74,4.25-1.81,4.19,32-3.67,1.56Z"/><path d="M110.84,8.85l-.92-5.04,4.3-.78.92,5.04-4.3.78ZM115.49,34.39l-4.17-22.89,4.3-.78,4.17,22.89-4.3.78Z"/><path d="M143.17,32.47l.02-3.32h-.08c-1.82,2.51-4.85,3.88-8.25,3.86-6.76-.04-12.07-5.19-12.03-12.04.04-7.1,5.11-12.49,12.04-12.45,3.15.02,6.13,1.17,8,3.53h.08s.06-10.67.06-10.67l4.37.03-.18,31.08-4.03-.02ZM135.18,12.52c-4.45-.02-7.96,3.69-7.99,8.27-.02,4.37,3.52,8.21,7.89,8.24,4.41.02,8.13-3.57,8.15-7.98.03-4.75-3.14-8.5-8.06-8.53Z"/><path d="M156.61,24.62c-.07,3.99,2.21,7.2,5.65,8.17,2.63.74,5.48.05,7.44-1.97l4.21,1.18c-3.03,4.12-8.07,5.94-12.88,4.59-6.31-1.77-9.84-8.77-8.17-14.76,1.98-7.08,8.7-10.52,14.65-8.85,6.59,1.85,10.18,8.35,8.38,14.78-.19.69-.37,1.33-.71,2.07l-18.56-5.2ZM171.99,25.44c.74-3.89-1.85-7.58-5.44-8.59-3.44-.96-7.63.78-9.03,4.54l14.48,4.05Z"/><path d="M201.44,58.37l9.47-20.33-.07-.05-18.16,13.17-3.08-2.54,13.07-29.51,3.63,2.99-10.32,21.82.07.05,19.52-14.23,2.56,2.11-10.21,21.69.07.05,19.44-14.07,3.57,2.94-26.48,18.45-3.08-2.54Z"/><path d="M210.95,68.77l18.44-14.19,2.66,3.46-18.44,14.19-2.66-3.46ZM231.52,52.94l4.06-3.12,2.66,3.46-4.06,3.13-2.66-3.46Z"/><path d="M233.63,91.6c-5.51.8-10.25-1.75-12.64-6.33-3.09-5.92-.76-13.06,5.12-16.13,6.21-3.25,13.41-1.28,16.56,4.75,2.45,4.69,1.75,10.51-2.08,14.07l-2.24-4.28c1.82-2.42,2.29-5.04.84-7.83-2.12-4.06-6.63-5.16-10.83-2.96-4.09,2.14-5.87,6.62-3.83,10.53,1.38,2.64,3.9,4.02,6.85,3.86l2.26,4.32Z"/><path d="M227.24,97.57l30.03-8.01,1.13,4.22-30.03,8.01-1.13-4.22ZM230.79,110.88l9.24-12.11,12.97,5.1,1.33,4.99-12.77-5.33-9.37,12.63-1.41-5.28Z"/><path d="M241.9,118.83c-3.83,1.14-6.2,4.29-6.07,7.86.09,2.73,1.61,5.24,4.13,6.5l.15,4.37c-4.85-1.64-8.1-5.9-8.28-10.89-.23-6.55,5.38-12.04,11.59-12.25,7.35-.25,12.66,5.11,12.87,11.28.24,6.84-4.87,12.23-11.54,12.46-.71.02-1.38.05-2.19-.05l-.67-19.26ZM245.78,133.74c3.93-.47,6.67-4.05,6.54-7.79-.12-3.57-3.06-7.04-7.06-7.24l.52,15.03Z"/><path d="M231.76,142.05l19.06,2.89.47-3.12,3.95.6-.47,3.11,7.72,1.17-.66,4.32-7.72-1.17-.57,3.78-3.95-.6.57-3.78-19.06-2.89.66-4.32Z"/><circle class="cls-1" cx="135" cy="132.85" r="129.99"/><path d="M61.57,231.89c-6.02,1.74-11.61.35-16.1-3.95-6.22-5.95-6.01-16.44-.29-22.43,6.47-6.77,16.58-6.64,22.62-.86,4.25,4.06,6.37,9.81,4.61,16.21l-3.95-3.77c.19-3.6-.65-6.67-3.29-9.2-4.71-4.5-12.15-4.01-16.42.46-4.5,4.71-4.93,12.26-.31,16.67,2.34,2.24,5.3,3.33,9.1,3.01l4.04,3.86Z"/><path d="M73.13,247.89c-5.78-3.09-8.29-10.77-5.2-16.55,3.35-6.26,10.75-8.25,17.05-4.89,5.67,3.03,8.62,10.33,5.06,16.81-3.01,5.44-10.35,8.13-16.91,4.63ZM82.91,229.87c-3.85-2.06-8.93-.58-11.07,3.42-2.08,3.89-.68,9.02,3.21,11.1,4.04,2.16,9.04.74,11.26-3.41,2.14-4,.64-8.95-3.4-11.11Z"/><path d="M124.69,263.1l2.33-12.81c.79-4.34-.58-7.11-4.18-7.76-3.8-.69-5.84,1.11-6.67,5.7l-2.35,12.89-4.3-.78,2.42-13.31c.82-4.5-.96-6.67-4.06-7.23-3.8-.69-6.07,1.2-6.89,5.71l-2.34,12.85-4.3-.78,4.17-22.89,3.97.72-.45,2.48h.08c2.26-1.84,4.16-2.43,7.14-1.89,2.98.54,5.69,2.53,6.41,5.14,2.13-2.3,4.63-3.13,8.26-2.47,5.95,1.08,8.66,5.42,7.58,11.33l-2.53,13.89-4.3-.78Z"/><path d="M141.67,270.95l-4.07-30.76,3.96-.52.47,3.54h.08c1.59-3.06,4.36-4.82,7.65-5.26,6.87-.91,12.65,3.75,13.59,10.87.86,6.49-3.48,12.49-10.09,13.36-3.5.46-6.81-.54-8.64-2.84h-.08s1.46,11.04,1.46,11.04l-4.33.57ZM158.99,249.13c-.56-4.21-4.42-7.8-9.04-7.19-4.33.57-7.15,4.88-6.58,9.17.59,4.5,4.41,7.76,8.91,7.17,4.45-.59,7.29-4.73,6.71-9.15Z"/><path d="M191.66,250.1l-1.39-3.33-.08.03c-.45,3.19-2.61,5.64-5.68,6.91-6.28,2.61-13.37.01-15.95-6.19-2.86-6.86.07-13.72,6.39-16.35,3.14-1.31,6.26-1.24,8.95.51l.08-.03-1.26-3.03,4.03-1.68,8.94,21.48-4.03,1.68ZM187.28,239.36c-1.74-4.19-6.22-6.42-10.68-4.56-4.03,1.68-5.89,6.5-4.13,10.73,1.68,4.03,6.44,6.19,10.48,4.51,4.19-1.74,6.03-6.61,4.34-10.68Z"/><path d="M217.97,233.2l-7.47-10.25c-2.89-3.97-5.81-4.7-8.94-2.43-3.09,2.25-3.3,5.88-.73,9.42l7.49,10.29-3.53,2.57-13.7-18.81,3.29-2.4,1.46,2,.07-.05c.08-2.81,1.5-4.94,3.67-6.52,4.51-3.29,9.92-2.86,13.7,2.33l8.21,11.27-3.53,2.57Z"/><path d="M235.42,227.35l-3.99-7.96-23.32-7.93,3.08-3.55,18.13,6.66-9.05-17.13,3.08-3.55,15.04,30.05-2.97,3.43Z"/></svg>