<?xml version="1.0" encoding="UTF-8"?><svg id="Layer_3" xmlns="http://www.w3.org/2000/svg" viewBox="0 0 270 270"><defs><style>.cls-1{fill:#fff;}</style></defs><path d="M270.18,135.21c0,74.56-60.44,135-135,135S.18,209.76.18,135.21,60.62.21,135.18.21s135,60.44,135,135ZM129.79,11.01c1.6,1.13,3.05,2.08,4.71,2.98V1.57c-6.52.21-12.35,4.88-16.37,9.86l6.02-1.64c1.94-.53,3.98.05,5.64,1.22ZM135.83,31.04v13.07c10.67-.05,21.04-.88,31.61-2.78-3.61-10.62-8.38-21.78-15.6-30.39-4.04-4.7-9.47-9.11-16.01-9.37v13.15c2.6,1.52,4.94,2.75,6.16,5.66,1.39,3.34-.73,5.79-3.12,7.77-1.07.9-2.06,1.79-3.05,2.89ZM98.06,27.6c1.3,2.2,2.33,4.27,3.19,6.6,1.31,3.58-.23,5.79-.24,6.67,0,.11.35.19.46.15s.21-.22.28-.41c2.12-6.26,4.57-12.29,7.61-18.17-1.1-.51-2.01-1.17-2.64-2.15-.83-1.31-.71-2.94.41-4.07.75-.75,1.73-1.4,2.75-1.78l5.84-2.19c3.46-4.36,6.76-7.73,11.77-10.3-21.69,2.09-40.91,13.53-55.54,29.34,6.53,3.51,13.22,5.78,20.22,7.66.45-.87.21-1.75-.5-2.32l-6.66-5.36c-.79-.63-1.44-1.55-1.67-2.48-.35-1.37.32-2.54,1.58-3.02,2.06-.79,4.19-1.31,6.41-1.59,2.8-.36,5.3.98,6.74,3.42ZM176.34,28.15c1.37-1.61,3.05-2.48,5.02-2.94,1.71-.31,3.4-.27,5.15-.08l7.75,1.95c-13.94-13.59-31.8-23.23-51.35-25.11,7.9,4.06,13.22,11.64,17.43,19.26,3.43,6.35,6.06,12.86,8.39,19.76.63-.02,1.2-.12,1.87-.3.78-4.64,2.63-8.89,5.73-12.53ZM158.02,3.5c0-.06-.05-.12-.12-.12s-.12.05-.12.12.05.12.12.12.12-.05.12-.12ZM91.32,13.34c6.54-4.23,13.43-7.24,20.84-9.76-18.06,3.01-35.33,9.98-50.68,20.11,2.82,2.92,6,5.13,9.28,6.93,6.22-6.71,12.93-12.45,20.56-17.28ZM206.28,26.09c-1.44-1.43-1.6-3.08-1-4.72-14.47-8.83-30.28-15.01-47.05-17.78,8.19,2.73,15.82,6.3,22.99,11.16,6.76,4.58,12.85,9.87,18.41,15.9,2.4-1.4,4.59-2.82,6.65-4.56ZM108.24,32.72c1.38-2.95,3.02-4.55,2.73-8.69-.02-.27-.23-.64-.47-.85-3.06,5.85-5.46,11.82-7.58,18.15l5.12.84c.29-1.06.5-1.78.81-2.61,1.17-3.1-1.98-3.91-.61-6.83ZM68.66,32.91c.4-.18.86-.97,1.04-1.33-3.51-2.06-6.56-4.25-9.37-7.14-3.44,2.38-6.63,4.71-9.73,7.29,2.15,1.38,4.15,2.38,6.42,3.08,2.82.83,5.7.77,8.36-.43l3.28-1.47ZM208.24,30.46c.93-1.22.23-2.87-.99-3.42-2.19,1.79-4.34,3.21-6.68,4.61l3.13,3.6,4.55-4.79ZM202.68,36.13l-3.26-3.71c-.5-.14-.95.61-1.19.96l-1.19,1.71c-.42.6.04,1.53.46,1.95,1.45,1.47,3.89.41,5.19-.91ZM126.52,41.09l-.53,2.81,8.52.21v-10.43c-.57,1.23-1.02,2.17-1.68,3.2-2.53,1.97-5.08.54-6.31,4.21ZM68.67,72.6c2.96-1.66,4.97-4.27,6.01-7.42,1.22-3.71,1.96-6.17,5.83-7.83,5-1.92,11.48-1.43,15.8,2.35l2.28-8.94c-2.57.81-7.01-.72-9.65-1.34-.43-.24-.8-.75-.65-1.26.81-2.76,1.88-5.3,3.24-7.98-5.51-1.49-10.77-3.25-16.12-5.65-.15.71-.55,3.83.7,3.62,2.13-.35,4.87-.85,6.25,1.35.65,1.03.52,2.25-.35,3.12-1.62,1.65-3.46,3-5.52,4.13l-6.8,3.74c-6.02,3.31-11.74,10.26-7.31,17.24,1.15,1.81,2.6,3.29,4.26,4.66.58.48,1.27.61,2.02.19ZM182.75,52.77c-.08-1.65-1.15-2.42-2.55-2.73-1.3-.28-2.46-.36-3.64.49-.32.23-1.25.33-1.56.06-2.74-2.37-4.92-4.6-4.58-8.44l-1.2.26c2.01,6.18,3.57,12.14,5.11,18.57l2.1-3.32c1.1-1.73,2.86-3.03,4.89-3.27.92-.11,1.49-.61,1.44-1.62ZM101.04,42.83c.05-.14,0-.4-.04-.51-.45-1.19-1.4,2.55-.9,3.18l.95-2.67ZM125.74,45.26c-.3,1.88-.53,3.42-1.1,4.95-.76,2.04-2.83,2.95-4.81,1.99l-4.14-2.01c-3.42-1.66-6.22-2.71-7.52-6.66l-5.72-.92c-1.98,6.13-3.64,12.17-5.03,18.35,1.92,2.65,2.42,5.8,1.57,8.81-.68,2.23-2.19,3.86-4.31,4.81-2.03,11.76-3.37,23.4-4.13,35.28,14.71,2.17,29.2,3.21,43.95,3.2V45.43s-8.77-.17-8.77-.17ZM169.83,88.02c-3.97.82-7.8-1.05-9.46-4.65-.72-1.55-.73-3.28-.07-4.81,1.97-4.55,7.5-.73,8.81-4.28.92-2.5-2.55-1.69-3.36-4.81-.37-1.44-.19-2.87.84-3.94.85-.88,2.02-1.35,3.18-1.73,1.22-.4,2.31-.82,3.43-1.56-1.46-6.63-3.2-13.05-5.32-19.64-10.65,1.94-21.29,2.76-32.05,2.86v67.64s17.8-.52,17.8-.52l3.14-4.36c1.16-1.73,2.04-3.52,2.66-5.51.95-3.03,1.95-5.58,5.1-6.91,1.43-.6,2.94-.98,4.5-1.2l9.3-1.28-1.23-9.54c-2.14,2.06-4.33,3.63-7.29,4.24ZM19.73,81.71c1.31-3.37,1.75-6.44,1.97-9.73l.75-8.58c-2.68,4.13-4.95,8.21-7.1,12.52,1.32,2.17,2.64,4.12,4.38,5.79ZM239.44,89.75c2.79-1.24,2.09-4.6.99-6.74-.67-1.32-.88-2.61-.59-4.07.5-2.51,1.91-9.19-1.51-10.02-1.9-.46-3.46-1.19-5.1-2.23-2.11-1.33-5.11-.57-6.51,1.48-1.77,2.6-.78,5.98,1.85,7.51l2.79,1.62c4.49,2.6,2.84,7.71,5.1,11.49.62,1.04,1.79,1.48,2.97.96ZM68.91,93.89c-2.71,1.35-4.61,3.54-5.42,6.43l-.82,3.63c8.8,2.47,17.57,4.32,26.57,5.7.77-11.7,2.06-22.91,3.97-34.35-.84.29-1.55.61-2.32.97-1.13.73-2.07,1.65-2.58,2.89-1.19,2.89,1.82,3.51,1.31,5.51-.32,1.25-1.15,2.08-2.24,2.69-7.32,4.11-12.82,3.7-18.47,6.53ZM220.42,99.84l4.51-1.79c.66-2.37.76-4.94.25-7.4-.09-.22-.79-.27-1.03-.21-4.21,1.08-8.66,1.02-10.55-3.54-.72-1.73-2.38-3.57-4.08-2.82-1.4.62-.97,2.41-2.16,3.65-.25.26-.85.48-1.14.42-.26-.06-.73-.41-.87-.66l-2.97-5.29c-1.46-2.6-4.33-6.57-7.7-6.09-1.42.2-2.59,1.35-2.42,2.79.1.85.05,1.64-.55,2.21-1.39,1.32-3.31.52-4.52-1.02-1.76-2.23-4.03-1.88-6.27-.55-.98.87-1.89,1.78-2.66,2.83l1.4,10.78,9.6-1.29c1.73-.23,3.24.82,3.83,2.39.91,2.16,2.47,3.94,4.65,4.88,3.55,1.53,7.55.5,10.15-2.3.81-.88,1.92-1.2,3.07-.89,3.6.96,5.97,2.73,9.47,3.91ZM21.73,122.44c-.69-2.73-1.91-5.11-3.51-7.4l-2.77-3.97c-3.91-5.62-2.6-13.18-.05-19.1l3.8-8.8c-1.8-1.83-3.13-3.65-4.56-5.77C5.91,95.55,1.48,115.34,1.53,135.39c1.57,3.14,3.66,5.68,6.15,8.05,7.48,6.95,17.64,11.77,27.15,15.33-.74-5.95-1.22-11.47-1.42-17.32-2.04-1.08-4.16-1.86-6.32-2.64-1.49-.55-2.49-1.64-2.87-3.2-1.14-4.72-1.32-8.54-2.49-13.18ZM236.54,158.37c10.88-4.09,26.58-11.74,32.05-22.6-1.49-.14-2.79-.29-4.06-.77-3.86-1.44-2.56-5.74-2.15-9.23.61-5.16-1.72-4.69-2.11-8.07-.17-1.49-.53-2.89-.88-4.36s-.6-2.84-1.53-4.01c-2.57-3.25-6.71-4-10.89-4.29,3.6,4.2,6.08,9.06,7.08,14.52.19,1.03-.31,1.99-1.18,2.47l-3.08,1.7c-1.05.62-2.39.43-3.15-.59-2.8-3.77-6.43-6.83-10.77-8.78l1.04,13.21c1.18,2.04,2.65,3.81,4.55,5.11,3.67,2.32,4.94.62,7.53.85.79.07,1.28.92.95,1.7-3.14,7.37-7.13,14.24-11.83,20.72-.58.8-1.02,1.45-1.56,2.41ZM46.29,151.78c-1.16-.69-2.1-1.47-2.99-2.41-2.38-2.89-5.19-5.36-8.53-7.12.22,5.88.73,11.41,1.48,17.08,7.57,2.72,15.12,4.88,22.88,6.65.16-.82.05-1.66-.34-2.3l-1.33-2.2c-1.67-2.76.7-5.81,2.87-7.41,1.8-1.33,3.71-2.37,5.71-3.38,1.89-.92,3.84-1.35,5.97-1.15,5.84.64,11.36,2.23,16.84,4.73-.68-14.57-.59-28.89.28-43.28-9.22-1.43-17.98-3.27-26.82-5.75-.59,2.41-1.92,4.31-3.95,5.66l-4.21,2.7c-5.83,4.09-1.44,8.3-4.74,11.51-.52.5-1.65,1.07-2.28.61l-2.37-3.86c-2.01-3.28-4.98-6.05-9.14-5.63l-.91,13.01c3.78,3.93,7.62,5.68,11.08,9.82,1.93,2.32,3.72,4.65,5.33,7.2.91,1.45.46,3.27-.58,4.44-1.04,1.16-2.56,1.61-4.25,1.08ZM101.11,165.18l22.28,8.59,11.12.17v-59.51c-14.78-.08-29.22-1.03-44.03-3.23-.93,14.55-.97,29.06-.26,43.74,2.53,1.33,4.86,2.74,7.13,4.38,1.14.79,1.7,1.94,1.81,3.32.17,1.17.69,2.11,1.95,2.54ZM234.46,113.73c-1.17-.41-2.16-.73-3.26-.99.91,4.33,2.16,8.26,4.2,12.01l-.94-11.02ZM164.35,150.66c-7.61-.75-11.1-6.05-12.83-12.85-1.05-4.84-1.56-9.69-1.37-14.63.2-3.3.98-6.37,2.61-9.22l-16.92.48v59.5c14.53,0,28.79-.8,43.1-2.45l1.46-22.78-7.81,1.43c-2.73.46-5.38.81-8.23.52ZM33.4,127.53l.82-10.93c-1.86.68-2.98,2.48-3.06,4.47-.09,2.3.77,4.51,2.23,6.46ZM35.05,160.28c-5.58-2.05-10.82-4.36-15.94-7.15-3.74-2.09-7.17-4.31-10.44-7.04-2.74-2.28-5.01-4.8-7.09-7.79.4,18.7,4.69,36.82,12.52,53.56,2.59,3.57,5.55,6.6,8.9,9.39,9.31,7.66,20.63,13.24,32.09,17.44-10.69-18.19-17.08-37.84-20.04-58.41ZM232.34,185.38c-1.16,1.86-2.51,3.31-4.08,4.79-3.34,9.93-7.58,19.29-12.99,28.52,6.74-2.41,12.94-5.26,19.04-8.61,4.74-2.67,9.12-5.54,13.27-9.01,3.3-2.79,6.24-5.78,8.74-9.32,7.79-16.72,12.06-34.78,12.46-53.43-2.06,2.91-4.22,5.37-6.87,7.59-3.3,2.79-6.78,5.06-10.57,7.17-5.18,2.85-10.51,5.15-16.04,7.22l-2.16,12.17.92,5.03c.31,2.78-.22,5.4-1.73,7.88ZM192,157.5c.18-1.44.29-2.9.37-4.34-.1-1.92-1.14-3.4-3-3.93-2.42-.81-4.98-.94-7.64-.66l-1.45,22.75,16.49-2.42c-1.02-5.17-5.47-5.67-4.76-11.4ZM70.97,195.84l-5.08-3.36c-3.09-2.04-5.32-4.84-6.7-8.3-1.21-3.05-2.18-6.13-2.84-9.35-.36-1.73-.18-3.47.6-4.96l1.68-2.63c-7.56-1.8-14.79-3.82-22.15-6.43,3.03,20.74,9.76,40.78,20.65,58.65,9.67,3.4,19.51,6,29.6,7.91-1.35-2.96-2.36-5.78-3.21-8.79l-2.4-8.16c-2.19-6.07-4.54-10.89-10.15-14.6ZM216.04,205.39c-3.95,4.23-9.25,6.79-14.94,7.31-2.65.24-4.5-1.86-4.68-4.32-.15-2.12-.8-4.07-1.41-6.08l-1.86-6.19c-1.08-3.6-.88-7.28.35-10.84l2.51-7.32c.71-2.51,1.25-5.03.97-7.71l-16.85,2.44c-1.99,19.49-5.3,38.44-11.5,57.11,15.45-1.99,30.08-5.2,44.61-10.32,5.26-8.7,9.59-17.79,12.92-27.39-5.93,4.12-5.87,8.76-10.13,13.32ZM167.18,229.96c2.71-8.09,4.79-15.93,6.52-24,2.32-10.98,3.97-21.9,5.07-33.12-14.44,1.66-28.61,2.37-42.93,2.45v56.59c10.56-.02,20.91-.64,31.34-1.92ZM114.08,211.63c-1.52,4.89-3.96,9.22-7.36,13.04-1.27,1.69-2.55,3.27-3.15,5.34,10.34,1.24,20.41,1.84,30.93,1.87v-56.6s-7.12-.06-7.12-.06c1.55.63,2.6,1.57,2.54,3.31-.12,3.37-3.16,4.53-4.48,10.54-1.15,5.27-1.21,10.14-3.62,14.76-3.03,5.79-6.62,4.17-7.75,7.81ZM72.19,241.32c-6.12-6.4-11.35-13.31-15.95-20.76-11.01-4-21.51-8.88-30.94-15.8-2.75-2.02-5.69-4.62-7.9-6.87-.11-.11-.29-.15-.27-.1l.09.3c19.35,36.22,54.64,62,95.3,68.83-7.73-2.52-15.07-5.81-21.93-10.32-6.73-4.33-12.77-9.44-18.39-15.27ZM197.65,241.86c-5.56,5.7-11.52,10.69-18.16,14.92-6.78,4.42-14,7.64-21.61,10.12,40.61-6.79,76.25-32.77,95.47-69.25-3.55,3.26-6.91,6.32-10.86,8.91-4.18,2.88-8.47,5.27-13.02,7.55-5.01,2.43-10.02,4.53-15.34,6.44-4.73,7.63-10.13,14.75-16.48,21.3ZM108.25,245.81c-2.53.98-4.33-.1-6.24-1.4-5.51-4.62-10.73-9.17-14.44-15.49-9.89-1.87-19.52-4.29-29.03-7.56-.08.07-.14.17-.08.26,9.86,15.4,22.98,28.96,39.24,37.64,9.17,4.9,19.08,8.13,29.6,9.17-2.44-1.45-4.69-2.91-6.72-4.85-2.38-2.27-4.37-4.7-6.28-7.4-2.29-3.33-4.21-6.73-6.05-10.38ZM143.12,268.41c10.76-1.03,20.71-4.42,29.97-9.37,16-8.72,29.15-22.18,38.93-37.69l-18.27,5.23c-8.48,2.02-16.93,3.52-25.63,4.61-2.26,6.47-4.84,12.62-8.09,18.55-2.37,4.24-4.91,8.15-8.18,11.7-2.52,2.87-5.41,5.03-8.73,6.97ZM124.62,265.19c2.94,2.04,6.12,3.47,9.89,3.66v-35.63c-10.48-.04-20.49-.64-30.81-1.84l2.83,7.45,2.85,3.34c.76.84.74,1.98-.01,2.89,3.71,7.44,8.48,15.21,15.25,20.13ZM151.06,260.37c3.03-3.4,5.4-6.99,7.61-10.89,3.21-5.82,5.79-11.81,7.96-18.09-10.44,1.21-20.48,1.8-30.8,1.84v35.63c3.06-.14,5.59-1.08,8.04-2.46,2.73-1.61,4.98-3.6,7.18-6.01Z"/><circle class="cls-1" cx="157.91" cy="3.5" r=".12"/><path d="M73.42,139.62c-2.93.69-4.22-2.05-9.19-2.6l-4.93-.54c-1.66-.18-5.81-1.06-5.83-3.23-.02-2.55,1.08-7.21,4.67-6.51,2.12.42,4.03,1.22,5.91,2.28,2.88,1.62,9.11,5.17,10.83,7.76.75,1.12-.24,2.56-1.45,2.85Z"/><path d="M141,38.46c-.56-.77-.74-1.68-.48-2.45.8-2.4,2.91.18,5.37-2.32,1.24-1.25,2.82-1.84,4.52-1.18,1.47.57,2.53,1.97,2.54,3.74,0,1.13-.28,2.23-1.1,3.04-3.11,3.08-8.21,2.75-10.84-.83Z"/></svg>